<svg xmlns="http://www.w3.org/2000/svg" xmlns:xlink="http://www.w3.org/1999/xlink" width="484" height="379" viewBox="0 0 484 379">
  <defs>
    <path id="about-article-img-a" d="M338.560801,162.000439 C341.324993,162.000439 343.80059,159.780079 344.091868,157.025362 L346.092204,138.107463 C346.673104,132.613682 344.811777,124.336634 341.719662,119.766888 C341.719662,119.766888 324.885081,87.8703207 284.525471,74.7279656 C244.165862,61.5856106 202.211282,23.5078792 146.764672,23.0769102 C91.9962037,22.9111528 11.4213535,23.0664918 11.4213535,23.0664918 C8.11002862,23.0722457 6.70707121,25.4459748 8.28316343,28.3598652 L16.0472967,42.7142493 C17.0977874,44.6564041 17.5098214,47.9689822 16.9722066,50.1087515 C16.9722066,50.1087515 1.04507937,112.657035 0.581642733,126.714711 C0.118206094,140.772387 0.123259181,151.995894 0.123259181,151.995894 C0.0874194168,157.521251 4.52720322,162.000439 10.0604431,162.000439 L338.560801,162.000439 Z"/>
  </defs>
  <g fill="none" fill-rule="evenodd">
    <path fill="#EDF8F0" d="M100.594636,342.959395 C82.719483,323.15397 35.1493062,328.746506 9.39145237,308.663611 C-15.595852,289.180437 15.5128402,246.457392 30.579769,230.96847 C43.1331537,218.064065 61.8533229,208.976071 60.7112373,187.787196 C58.990941,155.903279 35.1564741,119.895302 49.7503214,88.6539446 C65.6152766,54.6904733 113.036918,32.9992332 145.321146,25.6480966 C175.367794,18.805815 206.561306,28.6220422 236.710694,21.9368306 C260.448395,16.6730377 280.483874,1.72931807 305.166542,0.629827919 C322.471051,-0.142541192 358.559046,-2.92177189 370.629792,14.7933899 C376.040362,22.7325655 374.83735,36.1782785 374.789564,46.0126792 C374.708327,62.9840301 377.747518,78.0666464 388.781307,90.5868146 C401.599904,105.132018 417.651225,110.197201 434.126646,117.900123 C457.436662,128.797667 480.341691,153.290205 482.920941,182.167723 C485.353249,209.394059 463.48876,239.851364 441.49047,248.10468 C420.667717,255.920536 398.332536,262.226703 376.436986,265.494019 C368.588134,266.664904 360.845606,265.783495 355.265395,271.879369 C347.709232,280.131387 345.242279,296.069451 340.280897,306.351696 C332.185947,323.124437 325.819656,341.757355 311.571062,353.649243 C285.239776,375.624767 248.159335,329.372695 207.182524,359.395929 C166.205714,389.419163 137.496776,383.846464 100.594636,342.959395 Z"/>
    <g fill-rule="nonzero" transform="translate(322)">
      <rect width="16" height="34" x="44" fill="#1C454F"/>
      <rect width="60" height="38" x="22" y="20" fill="#CCEDEE"/>
      <rect width="70" height="6" x="17" y="20" fill="#1C454F"/>
      <rect width="96" height="249" x="5" y="58" fill="#CFE4E5"/>
      <rect width="104" height="8" y="58" fill="#78C6C9"/>
      <rect width="7" height="223" x="18" y="76" fill="#EFF8F8"/>
      <rect width="7" height="223" x="39" y="76" fill="#EFF8F8"/>
      <rect width="7" height="223" x="59" y="76" fill="#EFF8F8"/>
      <rect width="7" height="223" x="80" y="76" fill="#EFF8F8"/>
      <rect width="5.423" height="6.48" x="29.723" y="31.26" fill="#78C6C9"/>
      <rect width="5.423" height="6.48" x="43.1" y="31.26" fill="#78C6C9"/>
      <rect width="5.423" height="6.48" x="56.477" y="31.26" fill="#78C6C9"/>
      <rect width="5.423" height="6.48" x="70.035" y="31.26" fill="#78C6C9"/>
      <rect width="5.423" height="6.48" x="29.723" y="44.44" fill="#78C6C9"/>
      <rect width="5.423" height="6.48" x="43.1" y="44.44" fill="#78C6C9"/>
      <rect width="5.423" height="6.48" x="56.477" y="44.44" fill="#78C6C9"/>
      <rect width="5.423" height="6.48" x="70.035" y="44.44" fill="#78C6C9"/>
    </g>
    <path fill="#FFF" d="M332.828661 96.8214284C327.466542 85.6126675 317.721143 79.904698 303.592464 79.6975198 301.73006 79.6702102 299.901117 79.8488024 298.120062 80.1397541 290.183552 66.3129752 275.27267 57 258.185839 57 241.097778 57 226.185378 66.3149175 218.249311 80.1440796 216.469425 79.8535228 214.642662 79.7024498 212.78061 79.7024498 200.091463 79.7024498 189.041099 86.7181083 183.296313 97.0818492 182.139508 96.8307413 180.93838 96.6984749 179.706354 96.6984749 173.504469 96.6984749 167.889796 102.46565 162.862336 114L322.00358 114 322.00358 113.999999C328.630997 113.999999 334.003579 108.627417 334.003579 102 334.003579 100.207729 333.602111 98.4382185 332.828661 96.8214284zM140.563025 202.193L182.594938 202.193 208.29585 202.193 208.29585 202.193C213.266413 202.193 217.29585 198.163563 217.29585 193.193 217.29585 191.683325 216.916089 190.197904 216.191524 188.87347 211.903591 181.035553 204.963205 177.041539 195.370365 176.891431 193.98518 176.869755 192.623095 177.00403 191.297562 177.220585 185.390968 166.930802 174.294335 160 161.578982 160 148.861802 160 137.763433 166.932794 131.857237 177.22502 130.532692 177.00881 129.173271 176.896395 127.787599 176.896395 118.344343 176.896395 110.120929 182.116704 105.845613 189.829066 104.984371 189.641998 104.090106 189.543456 103.172823 189.543456 96.2502815 189.543456 90.6374551 195.15711 90.6374551 202.078824 90.6374551 202.104196 107.279312 202.142255 140.563025 202.193z"/>
    <g fill="#1C454F" transform="translate(59 373)">
      <path d="M388.603774 6L35.3962264 6C33.5206604 6 32 4.65675 32 3 32 1.34325 33.5206604 0 35.3962264 0L388.603774 0C390.47934 0 392 1.34325 392 3 392 4.65675 390.47934 6 388.603774 6M16 6L4 6C1.791 6 0 4.65675 0 3 0 1.34325 1.791 0 4 0L16 0C18.209 0 20 1.34325 20 3 20 4.65675 18.209 6 16 6M415.2 6L406.8 6C405.2537 6 404 4.65675 404 3 404 1.34325 405.2537 0 406.8 0L415.2 0C416.7463 0 418 1.34325 418 3 418 4.65675 416.7463 6 415.2 6"/>
    </g>
    <g transform="translate(96 195)">
      <path fill="#78C6C9" d="M42,-0.000396358793 L137,-0.000396358793 L137,-0.000396358793 C139.209139,-0.000396358793 141,1.79046464 141,3.99960364 L141,22.9996036 L38,22.9996036 L38,3.99960364 L38,3.99960364 C38,1.79046464 39.790861,-0.000396358793 42,-0.000396358793 Z"/>
      <path fill="#1C454F" d="M46.08,5 L133,5 L133,5 C134.656854,5 136,6.34314575 136,8 L136,23.04 L43.08,23.04 L43.08,8 L43.08,8 C43.08,6.34314575 44.4231458,5 46.08,5 Z"/>
      <g fill-rule="nonzero" transform="translate(59.32 10.28)">
        <path fill="#1DBB3E" d="M3.2214846,3.77584149 L2.88914363,5.3354005 L5.47142226,3.34123466 L5.36913627,4.5683973 L8.43722021,2.11400123 C7.61907393,0.886838596 6.21283635,0.0687301681 4.60209759,0.0687301681 C2.07092658,0.0687301681 7.07861458e-06,2.13962464 7.07861458e-06,4.67067855 C7.07861458e-06,5.3354005 0.127846859,5.94894642 0.383526419,6.51138712 L3.2214846,3.77584149 Z"/>
        <path fill="#1DBB3E" d="M8.89742925,3.00884537 L4.34644635,6.56257022 L4.39755394,5.30978418 L1.84082912,7.30395001 L1.91756131,5.744391 L0.383483947,6.53694681 C1.09941503,8.14761105 2.71015379,9.27256322 4.6021259,9.27256322 C7.15885072,9.27256322 9.2042164,7.20173954 9.2042164,4.67068563 C9.2042164,4.08262153 9.10193043,3.52018084 8.89742925,3.00884537"/>
        <polygon fill="#FFF" points="18.92 2.89 18.602 1.774 18.253 2.89 16.606 8.073 15.53 8.073 13.393 .718 14.333 .718 15.899 6.31 16.091 7.118 16.313 6.386 18.172 .718 19.087 .718 20.9 6.33 21.133 7.113 21.314 6.396 22.886 .718 23.795 .718 21.658 8.073 20.587 8.073"/>
        <path fill="#FFF" d="M26.5632942 7.52225854C26.7990121 7.52225854 27.0204311 7.47426775 27.2276222 7.37828618 27.4347425 7.28223382 27.6165921 7.14080965 27.773171 6.95394287 27.9298208 6.7670053 28.0543336 6.53462514 28.1470634 6.25687315 28.2396517 5.9789796 28.287574 5.65826241 28.2909717 5.29450923 28.2909717 5.02171204 28.2497034 4.77255634 28.1672375 4.54690054 28.0847008 4.32131554 27.9676913 4.1259548 27.8161382 3.96088915 27.6645851 3.79589428 27.4801872 3.66791884 27.2629445 3.57696285 27.0457018 3.48607765 26.802339 3.44056427 26.5329978 3.44056427 26.3275055 3.44056427 26.1422582 3.46838194 25.9772556 3.52394649 25.8122532 3.57951104 25.6657258 3.65616889 25.5377445 3.75377847 25.4097632 3.85152961 25.2986289 3.96591474 25.2043417 4.09728774 25.1100546 4.22866076 25.0325437 4.36930632 24.9720216 4.51908287 24.9113579 4.669001 24.8666919 4.82472332 24.8380942 4.98639139 24.8094258 5.14805947 24.795127 5.30802876 24.795127 5.46622848 24.795127 5.62124297 24.8060281 5.78036286 24.8279718 5.94358816 24.8498447 6.10702581 24.8860872 6.26437613 24.9366285 6.41599305 24.987099 6.56753917 25.0561156 6.71066214 25.1437488 6.84536195 25.2313113 6.98006174 25.3398972 7.09713662 25.4695774 7.1963742 25.5991869 7.29582414 25.7541377 7.37495938 25.9343592 7.43385074 26.1144392 7.49281286 26.3241078 7.52225854 26.5632942 7.52225854M26.4673082 2.76366767C26.6794543 2.76366767 26.8730543 2.78306218 27.0482501 2.8217804 27.2233042 2.86056942 27.3849798 2.91521379 27.533206 2.98599667 27.6813613 3.05670875 27.8177662 3.14426716 27.9424207 3.2486719 28.0670043 3.35307664 28.1831643 3.47093012 28.2909717 3.60223234L28.3212681 2.89001509 29.1447234 2.89001509 29.1245493 4.16799983 29.1245493 8.0728785 28.2909717 8.0728785 28.3010941 7.34544293C28.2202563 7.45324524 28.118395 7.55849938 27.9954395 7.66120532 27.8724839 7.76391126 27.7335307 7.85401786 27.5787215 7.93145432 27.4237705 8.00889078 27.2528221 8.0712505 27.0659466 8.1183211 26.8790004 8.16546249 26.6827812 8.18903319 26.4774306 8.18903319 26.1877029 8.18903319 25.9250155 8.15116435 25.6892976 8.0753559 25.4535798 7.99961823 25.2430618 7.89528427 25.0578144 7.76221248 24.8725671 7.62921146 24.7118117 7.47348914 24.5754068 7.29490396 24.4390019 7.11653112 24.3270183 6.92449719 24.2394558 6.71901452 24.1518933 6.5136734 24.086133 6.30061696 24.0424579 6.08005754 23.9986413 5.85949811 23.9767684 5.64141608 23.9767684 5.42588224 23.9767684 5.09242413 24.0280883 4.76583196 24.1308698 4.44589338 24.2335098 4.1259548 24.3884606 3.84140766 24.5956517 3.59218117 24.8027011 3.34295469 25.0620616 3.14256838 25.3735914 2.99102224 25.6850505 2.83947612 26.0496699 2.76366767 26.4673082 2.76366767M31.4685476 1.47051415L30.6956337 1.47051415 30.6956337.687514029 31.4685476.687514029 31.4685476 1.47051415zM30.6552148 2.88999385L31.4887216 2.88999385 31.4887216 8.07292805 30.6552148 8.07292805 30.6552148 2.88999385zM32.4233324 2.88998677L33.3427736 2.88998677 34.762319 6.37547693C34.78582 6.43288183 34.8144884 6.50946891 34.8481826 6.60537969 34.881806 6.70136127 34.9138721 6.79826302 34.9441686 6.8958726 34.9811898 7.0070017 35.0182818 7.12492597 35.0553028 7.24950383 35.0889263 7.12825277 35.1243194 7.01202729 35.1614113 6.90089819 35.1917785 6.80668618 35.222075 6.71070461 35.2523007 6.61302424 35.2825972 6.51534389 35.3111948 6.43620863 35.3381643 6.37547693L36.732439 2.88998677 37.6266804 2.88998677 35.4392469 8.07292097 34.5905918 8.07292097 32.4233324 2.88998677zM42.2389358 4.99647088L42.23391 4.92575879C42.2170629 4.70689815 42.1742373 4.50651184 42.1052916 4.32459986 42.0363459 4.14275866 41.9413508 3.98618695 41.8203065 3.85481394 41.6991914 3.72351171 41.5521686 3.62165516 41.378955 3.5491735 41.2057412 3.4768334 41.0099467 3.44059257 40.7915007 3.44059257 40.5561368 3.44059257 40.3442031 3.48185899 40.1559119 3.56439182 39.9676208 3.64692465 39.8053789 3.75883236 39.6692571 3.90025655 39.5330646 4.0417515 39.4229921 4.20674637 39.3388981 4.39531195 39.254875 4.58394829 39.1976799 4.78426382 39.1674542 4.99647088L42.2389358 4.99647088zM42.9108379 7.49199178C42.6312327 7.73442312 42.3214017 7.91123873 41.9812742 8.02229705 41.6411468 8.13342616 41.2555039 8.1890615 40.824487 8.1890615 40.4169004 8.1890615 40.0532012 8.1225256 39.7333186 7.98952459 39.4132944 7.85652357 39.1430329 7.6712848 38.9223925 7.43387905 38.7018229 7.19640251 38.5334226 6.91270477 38.4172625 6.58264424 38.3011025 6.25265449 38.242987 5.8906001 38.242987 5.49655186 38.242987 5.12274751 38.3001823 4.77088586 38.414785 4.44075455 38.5292463 4.11076481 38.6958769 3.82119208 38.9148892 3.57196559 39.1337599 3.3227391 39.4006237 3.12575036 39.7156221 2.98085782 40.0304788 2.83610685 40.3900017 2.76369597 40.7941198 2.76369597 41.1915132 2.76369597 41.5367372 2.82860387 41.8297919 2.95820731 42.122705 3.08788153 42.3635194 3.26632514 42.5521645 3.49367973 42.7407388 3.72096353 42.8813201 3.99121254 42.9739791 4.30442674 43.0665674 4.61757016 43.1129323 4.95782342 43.1129323 5.32483261 43.1129323 5.36192283 43.1120121 5.40488804 43.110384 5.45365743 43.1086144 5.50242684 43.1061369 5.54709083 43.1028099 5.58750785L39.1320611 5.58750785 39.1472093 5.81486243C39.1673834 6.06741572 39.2187033 6.2980971 39.3010984 6.50690657 39.3834934 6.71571603 39.4970344 6.89585844 39.6416505 7.04740457 39.7862667 7.19887991 39.9619578 7.31602557 40.1687242 7.3985584 40.3755613 7.48109122 40.6118455 7.52228686 40.8775059 7.52228686 41.2339849 7.52228686 41.5601674 7.45999793 41.8561244 7.33534929 42.1520105 7.21077144 42.4176708 7.03225704 42.6532471 6.79994766L42.9108379 7.49199178z"/>
        <path fill="#1DBB3E" d="M49.5993784 1.90998376C49.0841261 1.52273068 48.4829393 1.32899796 47.7958182 1.32899796 47.4859872 1.32899796 47.203055 1.37040594 46.947163 1.45293877 46.6912004 1.53554238 46.4613578 1.65013984 46.2576352 1.79666039 46.0537712 1.94339328 45.8769474 2.11603271 45.7271638 2.31486179 45.5773096 2.51376166 45.4526551 2.72950785 45.3533422 2.96202959 45.2539585 3.1946221 45.1798453 3.43988475 45.1310737 3.69767596 45.0822313 3.95553796 45.05781 4.21417858 45.05781 4.47373936 45.05781 4.87146832 45.1099795 5.24980277 45.2144598 5.60874271 45.3187277 5.96768265 45.4787753 6.28280799 45.6943191 6.55418953 45.9098629 6.82550027 46.1826019 7.04131724 46.5127485 7.20128653 46.8427535 7.3613266 47.2333515 7.44138203 47.6847548 7.44138203 48.0989953 7.44138203 48.4888145 7.38164129 48.8542834 7.26208902 49.2196107 7.14260753 49.5404136 6.96154494 49.8165503 6.71904283L50.1096049 7.43126008C49.7963763 7.68388415 49.4258815 7.8733699 48.9981917 7.99964654 48.5705017 8.12592319 48.0888729 8.18899072 47.5534465 8.18899072 46.9977043 8.18899072 46.5076519 8.09131036 46.0832889 7.89609119 45.6589968 7.70073047 45.3019515 7.43387905 45.0122945 7.09532457 44.7226376 6.75691167 44.5037669 6.36293421 44.3556115 5.91332141 44.2073853 5.46377939 44.133343 4.98309291 44.133343 4.4711204 44.133343 4.12428433 44.1695147 3.78749943 44.2419289 3.46083648 44.3143432 3.13417353 44.4204516 2.8268343 44.5602542 2.53888958 44.6999153 2.25094485 44.8725627 1.98664162 45.0779841 1.7457675 45.2834055 1.50503496 45.5183447 1.29870289 45.7827309 1.12698365 46.0470464.955264399 46.3391809.821343204 46.659205.725361631 46.9790876.629380057 47.3260813.581389271 47.699903.581389271 48.1578893.581389271 48.5670332.642474888 48.9274763.764575341 49.2878486.886675795 49.6212514 1.08323983 49.9277553 1.35426744L49.5993784 1.90998376zM53.6912848 7.52225854C53.926932 7.52225854 54.1484925 7.47426775 54.3556128 7.37828618 54.562733 7.28223382 54.7445827 7.14080965 54.9011616 6.95394287 55.0578114 6.7670053 55.1823242 6.53462514 55.2749833 6.25687315 55.3676423 5.9789796 55.4155646 5.65826241 55.4189624 5.29450923 55.4189624 5.02171204 55.377694 4.77255634 55.2952282 4.54690054 55.2126207 4.32131554 55.095682 4.1259548 54.9441288 3.96088915 54.7925757 3.79589428 54.6081778 3.66791884 54.3909351 3.57696285 54.1736924 3.48607765 53.9304004 3.44056427 53.6609176 3.44056427 53.4554962 3.44056427 53.2702488 3.46838194 53.1053171 3.52394649 52.9402438 3.57951104 52.7937165 3.65616889 52.6658059 3.75377847 52.5377538 3.85152961 52.4266195 3.96591474 52.3323324 4.09728774 52.2380453 4.22866076 52.1606052 4.36930632 52.1000123 4.51908287 52.0393486 4.669001 51.9946825 4.82472332 51.9660849 4.98639139 51.9374873 5.14805947 51.9231177 5.30802876 51.9231177 5.46622848 51.9231177 5.62124297 51.9340895 5.78036286 51.9559625 5.94358816 51.9778354 6.10702581 52.0140779 6.26437613 52.0646192 6.41599305 52.1150897 6.56753917 52.1841062 6.71066214 52.2716687 6.84536195 52.359302 6.98006174 52.4678879 7.09713662 52.5975681 7.1963742 52.7271775 7.29582414 52.8821284 7.37495938 53.0622791 7.43385074 53.2424298 7.49281286 53.4520985 7.52225854 53.6912848 7.52225854M53.5952988 2.76366767C53.8075157 2.76366767 54.0011158 2.78306218 54.1763115 2.8217804 54.3512949 2.86056942 54.5129705 2.91521379 54.6611966 2.98599667 54.809352 3.05670875 54.9458277 3.14426716 55.0704114 3.2486719 55.1949242 3.35307664 55.311155 3.47093012 55.4189624 3.60223234L55.4493296 2.89001509 56.2727848 2.89001509 56.25254 4.16799983 56.25254 8.0728785 55.4189624 8.0728785 55.4290848 7.34544293C55.348247 7.45324524 55.2463857 7.55849938 55.1234302 7.66120532 55.0004746 7.76391126 54.8615214 7.85401786 54.7067121 7.93145432 54.5516904 8.00889078 54.3808127 8.0712505 54.1939372 8.1183211 54.006991 8.16546249 53.8107719 8.18903319 53.6054212 8.18903319 53.3156935 8.18903319 53.0530061 8.15116435 52.8172883 8.0753559 52.5814997 7.99961823 52.3710524 7.89528427 52.1858051 7.76221248 52.0005578 7.62921146 51.8398024 7.47348914 51.7033975 7.29490396 51.5669926 7.11653112 51.4550089 6.92449719 51.3674465 6.71901452 51.279884 6.5136734 51.2141944 6.30061696 51.1704486 6.08005754 51.1266319 5.85949811 51.1047591 5.64141608 51.1047591 5.42588224 51.1047591 5.09242413 51.156079 4.76583196 51.2588605 4.44589338 51.3615712 4.1259548 51.5164513 3.84140766 51.7235716 3.59218117 51.9307626 3.34295469 52.1900523 3.14256838 52.5015821 2.99102224 52.8130411 2.83947612 53.1776606 2.76366767 53.5952988 2.76366767M58.6167335 8.07289973L57.7832267 8.07289973 57.7832267 4.137726C57.7832267 3.92551895 57.779829 3.71338268 57.7731042 3.50124642 57.7663087 3.28903937 57.7596549 3.08532627 57.7529302 2.88996554L58.5864371 2.88996554 58.6167335 3.67296567C58.758235 3.38671974 58.950207 3.16446151 59.1927204 3.00612023 59.4351629 2.84792052 59.704575 2.76871448 60.0009567 2.76871448 60.1961848 2.76871448 60.3781052 2.78895838 60.5465763 2.82937541L60.5566279 3.61230474C60.4859126 3.5752853 60.400049 3.54583963 60.2990371 3.52396772 60.1979545 3.50209581 60.0901472 3.49112447 59.975686 3.49112447 59.7736623 3.49112447 59.588415 3.53076287 59.4200147 3.60982734 59.2515437 3.6889626 59.1084141 3.80263989 58.9905552 3.95078843 58.8726255 4.09900776 58.7809574 4.27915017 58.7152678 4.49128644 58.6495783 4.70349349 58.6167335 4.94089924 58.6167335 5.20357447L58.6167335 8.07289973z"/>
      </g>
      <mask id="about-article-img-b" fill="#fff">
        <use xlink:href="#about-article-img-a"/>
      </mask>
      <use fill="#78C6C9" xlink:href="#about-article-img-a"/>
      <path fill="#FFF" d="M302.921981,57.84 C302.921981,57.84 284.611413,110.84522 350.828218,121.261966 C415.6915,132.379037 372.119879,79.5846739 372.119879,79.5846739 L302.921981,57.84 Z" mask="url(#about-article-img-b)"/>
      <path fill="#FFF" fill-rule="nonzero" d="M210.352028,129.695634 L191.753403,147.623828 C190.077801,143.937709 189.24,139.916658 189.24,135.560209 C189.24,118.97221 202.811819,105.4 219.399907,105.4 C229.955921,105.4 239.171732,110.761712 244.533473,118.80428 L224.426713,134.889879 L225.097047,126.847311 L208.174024,139.916658 L210.352028,129.695634 Z M247.549463,124.668901 C248.889667,128.020087 249.56,131.706206 249.56,135.560255 C249.56,152.148254 236.155648,165.72 219.400093,165.72 C207.00101,165.72 196.444996,158.347298 191.753125,147.791341 L201.806736,142.597096 L201.30387,152.81812 L218.059426,139.748774 L217.724491,147.959272 L247.549463,124.668901 Z" mask="url(#about-article-img-b)"/>
      <path fill="#EDF8F0" d="M40.2652872,82.2 C37.5057466,82.2 35.9358322,80.0585195 36.9747042,77.5017245 C36.9747042,77.5017245 44.2336032,42.5376294 110.80988,39.28 L123.130642,39.28 C127.550863,39.28 134.695159,39.575468 139.095853,40.0155802 C139.095853,40.0155802 177.093348,42.3766846 203.783578,55.9958521 C230.473809,69.6150195 240.843648,79.0506908 240.843648,79.0506908 C242.986593,80.7900062 242.4782,82.2 239.727204,82.2 L40.2652872,82.2 Z"/>
      <circle cx="62.8" cy="146" r="35.96" fill="#1C444F"/>
      <circle cx="63.38" cy="146.58" r="14.5" fill="#FFF"/>
      <circle cx="265.8" cy="146" r="35.96" fill="#1C454F"/>
      <circle cx="265.22" cy="146.58" r="14.5" fill="#FFF"/>
      <path fill="#FFF" d="M224.04,77.6712342 C224.04,76.0152671 225.37066,74.4737249 227.001861,74.2296375 L244.278139,71.6444727 C245.91393,71.3996985 247.24,72.5344895 247.24,74.2049607 L247.24,85.5554325 C247.24,87.2143252 245.90934,88.360008 244.278139,88.1159205 L227.001861,85.5307558 C225.36607,85.2859815 224.04,83.7473323 224.04,82.089159 L224.04,77.6712342 Z"/>
      <rect width="17.4" height="4.64" x="141.68" y="94.96" fill="#FFF" rx="2.32"/>
      <rect width="17.4" height="4.64" x="55.84" y="94.96" fill="#FFF" rx="2.32"/>
    </g>
  </g>
</svg>
