<?xml version="1.0" encoding="UTF-8" standalone="no"?>
<svg width="660px" height="101px" viewBox="0 0 660 101" version="1.1" xmlns="http://www.w3.org/2000/svg" xmlns:xlink="http://www.w3.org/1999/xlink" xmlns:sketch="http://www.bohemiancoding.com/sketch/ns">
    <!-- Generator: Sketch 3.4 (15575) - http://www.bohemiancoding.com/sketch -->
    <title>Page 1</title>
    <desc>Created with Sketch.</desc>
    <defs>
        <path id="path-1" d="M0,0.748633588 L659.604463,0.748633588 L659.604463,101 L0,101"></path>
        <path id="path-3" d="M0,1 L659.604463,1 L659.604463,101.251366 L0,101.251366 L0,1 Z"></path>
    </defs>
    <g id="Page-1" stroke="none" stroke-width="1" fill="none" fill-rule="evenodd" sketch:type="MSPage">
        <g id="waivecar-website@2x" sketch:type="MSArtboardGroup" transform="translate(-163.FFFFFF, -6483.FFFFFF)">
            <g id="Page-1" sketch:type="MSLayerGroup" transform="translate(163.FFFFFF, 6483.FFFFFF)">
                <path d="M35.0895631,41.1278168 L31.4695864,58.1150916 L59.5966893,36.3939237 L58.4825537,49.7606183 L91.901222,23.026458 C82.9896799,9.65976336 67.6724369,0.748633588 50.1276939,0.748633588 C22.5572734,0.748633588 7.71028035e-05,23.3055573 7.71028035e-05,50.8747023 C7.71028035e-05,58.1150916 1.39255374,64.7980534 4.17750701,70.9243588 L35.0895631,41.1278168 Z" id="Fill-1" fill="#25C155" sketch:type="MSShapeGroup"></path>
                <g id="Group-5">
                    <mask id="mask-2" sketch:name="Clip 4" fill="white">
                        <use xlink:href="#path-1"></use>
                    </mask>
                    <g id="Clip-4"></g>
                    <path d="M96.9139836,32.7734206 L47.3430491,71.4818634 L47.8997313,57.8360695 L20.0509696,79.5572374 L20.886764,62.5699626 L4.17704439,71.2027641 C11.975222,88.7466954 29.519965,101.000077 50.1280023,101.000077 C77.976764,101.000077 100.255619,78.4439244 100.255619,50.8747794 C100.255619,44.4693748 99.1414836,38.3430695 96.9139836,32.7734206" id="Fill-3" fill="#25C155" sketch:type="MSShapeGroup" mask="url(#mask-2)"></path>
                </g>
                <path d="M206.082764,31.4787702 L202.616222,19.3186786 L198.81968,31.4787702 L180.880942,87.9331443 L169.160544,87.9331443 L145.883979,7.81855649 L156.119376,7.81855649 L173.176829,68.7284954 L175.267857,77.5332282 L177.688886,69.5549992 L197.938395,7.81855649 L207.898535,7.81855649 L227.653044,68.9497702 L230.183558,77.4777168 L232.1651,69.6644802 L249.278068,7.81855649 L259.182694,7.81855649 L235.9069,87.9331443 L224.241245,87.9331443 L206.082764,31.4787702 Z" id="Fill-6" fill="#FFFFFF" sketch:type="MSShapeGroup"></path>
                <path d="M289.336907,81.9351321 C291.90443,81.9351321 294.316206,81.4123992 296.573005,80.3669336 C298.829033,79.3206969 300.809804,77.7802542 302.515318,75.7448344 C304.221603,73.7086435 305.577841,71.1774756 306.587888,68.1521015 C307.596393,65.1251855 308.118379,61.6318191 308.155388,57.6696893 C308.155388,54.6982847 307.705879,51.9843916 306.807631,49.5264679 C305.908612,47.0693153 304.634103,44.9413763 302.983332,43.1434221 C301.332561,41.3462389 299.324033,39.9522847 296.957748,38.9615595 C294.591463,37.9716053 291.940668,37.4758573 289.006907,37.4758573 C286.768612,37.4758573 284.750832,37.7788573 282.953565,38.3840863 C281.156299,38.9893153 279.560271,39.8243 278.166252,40.8874985 C276.772234,41.9522389 275.56172,43.1981626 274.53471,44.6291244 C273.507701,46.0600863 272.663425,47.5920481 272.004196,49.2234679 C271.343425,50.8564298 270.856907,52.552613 270.545411,54.3135595 C270.233145,56.0745061 270.077397,57.8169489 270.077397,59.5401168 C270.077397,61.2285901 270.196136,62.9617809 270.435154,64.7396893 C270.673402,66.5199107 271.068168,68.2338267 271.618682,69.8852924 C272.168425,71.535987 272.920178,73.0949336 273.87471,74.5621321 C274.828472,76.0293305 276.011229,77.3045519 277.423752,78.3854832 C278.835505,79.4687275 280.523285,80.3306969 282.486322,80.9721626 C284.447818,81.6143992 286.731603,81.9351321 289.336907,81.9351321 M288.291393,30.1028573 C290.602164,30.1028573 292.710925,30.3141092 294.61922,30.735842 C296.525972,31.1583458 298.287,31.7535519 299.901533,32.5245443 C301.515294,33.2947656 303.001065,34.2484832 304.358846,35.3856969 C305.715855,36.5229107 306.981112,37.806613 308.155388,39.2368038 L308.485388,31.4790786 L317.454757,31.4790786 L317.235014,45.3993458 L317.235014,87.9326817 L308.155388,87.9326817 L308.265645,80.0091931 C307.385131,81.1834145 306.275621,82.3298802 304.936346,83.4485901 C303.59707,84.5673 302.083542,85.5487733 300.397304,86.3922389 C298.709523,87.2357046 296.847491,87.9149489 294.811977,88.4276588 C292.775692,88.9411397 290.638402,89.1978802 288.40165,89.1978802 C285.245832,89.1978802 282.384547,88.7853992 279.817023,87.9596664 C277.2495,87.1347046 274.956463,85.9982618 272.938682,84.5487962 C270.920902,83.1001015 269.169897,81.4039183 267.684126,79.4587046 C266.198355,77.5158038 264.978589,75.4241015 264.024827,73.1859107 C263.071065,70.9492618 262.35478,68.6285748 261.879056,66.2261626 C261.40179,63.8237504 261.163542,61.4483229 261.163542,59.1006511 C261.163542,55.4685061 261.722537,51.9111473 262.84207,48.4262618 C263.960061,44.9413763 265.647841,41.841987 267.90464,39.1273229 C270.159897,36.4126588 272.984944,34.2299794 276.378238,32.5792847 C279.770762,30.9285901 283.742327,30.1028573 288.291393,30.1028573" id="Fill-8" fill="#FFFFFF" sketch:type="MSShapeGroup"></path>
                <mask id="mask-4" sketch:name="Clip 11" fill="white">
                    <use xlink:href="#path-3"></use>
                </mask>
                <g id="Clip-11"></g>
                <path d="M342.766682,16.0173664 L334.347827,16.0173664 L334.347827,7.48864885 L342.766682,7.48864885 L342.766682,16.0173664 Z M333.90757,31.4788473 L342.986425,31.4788473 L342.986425,87.9332214 L333.90757,87.9332214 L333.90757,31.4788473 Z" id="Fill-10" fill="#FFFFFF" sketch:type="MSShapeGroup" mask="url(#mask-4)"></path>
                <path d="M353.16654,31.4787702 L363.181423,31.4787702 L378.643619,69.4439763 C378.8996,70.0692511 379.211867,70.9034649 379.578876,71.9481595 C379.945114,72.9936252 380.29439,74.0491137 380.62439,75.1123122 C381.027638,76.3227702 381.431657,77.6072435 381.834904,78.9641901 C382.201143,77.6434802 382.586657,76.3775107 382.990675,75.1670527 C383.321446,74.1408618 383.651446,73.0953962 383.980675,72.0314267 C384.310675,70.9674573 384.622171,70.1054878 384.915932,69.4439763 L400.102871,31.4787702 L409.843269,31.4787702 L386.01696,87.9331443 L376.773105,87.9331443 L353.16654,31.4787702 Z" id="Fill-12" fill="#FFFFFF" sketch:type="MSShapeGroup" mask="url(#mask-4)"></path>
                <path d="M460.081605,54.4233489 L460.026862,53.6531275 C459.843357,51.2692191 459.376886,49.0865397 458.625904,47.1050893 C457.874923,45.1244099 456.840203,43.4189748 455.521745,41.988013 C454.202516,40.5578221 452.601091,39.4483641 450.714386,38.6588679 C448.82768,37.8709137 446.695016,37.4761656 444.315624,37.4761656 C441.751956,37.4761656 439.443498,37.9256542 437.392563,38.8246313 C435.341629,39.7236084 433.574432,40.9425473 432.091745,42.4829901 C430.608287,44.0242038 429.409339,45.821387 428.493357,47.8753107 C427.578147,49.9300053 426.955157,52.1119137 426.625928,54.4233489 L460.081605,54.4233489 Z M467.400203,81.6054557 C464.354643,84.2461046 460.979853,86.1720435 457.275063,87.3817305 C453.570273,88.5921885 449.369713,89.1981885 444.674923,89.1981885 C440.235343,89.1981885 436.273801,88.4734557 432.789526,87.0247611 C429.303708,85.5760664 426.359923,83.5583794 423.956629,80.972471 C421.554105,78.3857916 419.719829,75.2956542 418.454572,71.7005168 C417.189315,68.1061504 416.556301,64.1625244 416.556301,59.8704099 C416.556301,55.7987992 417.179292,51.9661962 418.427586,48.3702878 C419.674339,44.7759214 421.489339,41.6217916 423.8749,38.9071275 C426.258918,36.1924634 429.165694,34.0467916 432.596769,32.4685702 C436.026301,30.8918908 439.942353,30.1031656 444.344152,30.1031656 C448.672703,30.1031656 452.433007,30.8101656 455.625063,32.2218527 C458.815577,33.6343107 461.438614,35.5779824 463.493404,38.0544099 C465.547423,40.5300664 467.078685,43.4737153 468.08796,46.8853565 C469.096465,50.2962267 469.601488,54.002387 469.601488,57.9999824 C469.601488,58.4039824 469.591465,58.8719748 469.573731,59.4031885 C469.554456,59.9344023 469.52747,60.4208985 469.491231,60.8611351 L426.240414,60.8611351 L426.405414,63.3375626 C426.625157,66.0884634 427.184152,68.6011275 428.081629,70.875555 C428.979105,73.1499824 430.215834,75.112158 431.791044,76.7628527 C433.366255,78.4127763 435.279946,79.6887687 437.532119,80.5877458 C439.785063,81.4867229 442.358755,81.9354405 445.252423,81.9354405 C449.13532,81.9354405 452.688217,81.2569672 455.911886,79.8992496 C459.134783,78.5423031 462.028451,76.5978603 464.594432,74.0674634 L467.400203,81.6054557 Z" id="Fill-13" fill="#FFFFFF" sketch:type="MSShapeGroup" mask="url(#mask-4)"></path>
                <path d="M540.25418,20.8042267 C534.641867,16.5861275 528.093526,14.4759214 520.609157,14.4759214 C517.234367,14.4759214 514.152568,14.9269519 511.365301,15.825929 C508.577264,16.7256771 506.073736,17.9739137 503.854717,19.5698679 C501.634157,21.1681351 499.708129,23.0485855 498.076633,25.2143031 C496.444367,27.3807916 495.086586,29.7307763 494.004834,32.2634863 C492.922311,34.7969672 492.115044,37.4684557 491.583806,40.2764099 C491.051797,43.0851351 490.785792,45.9023412 490.785792,48.7295702 C490.785792,53.0617763 491.35404,57.1827305 492.492077,61.0924328 C493.627801,65.0021351 495.371096,68.4345931 497.718876,71.3905779 C500.066657,74.3457916 503.037428,76.6965473 506.633502,78.4389901 C510.228035,80.1822038 514.482568,81.0541962 519.399414,81.0541962 C523.91147,81.0541962 528.157521,80.4034786 532.138339,79.1012725 C536.117614,77.7998374 539.611914,75.8276389 542.619694,73.1862191 L545.81175,80.9439443 C542.399951,83.695616 538.36439,85.7595626 533.705839,87.135013 C529.047287,88.5104634 523.801213,89.1974176 517.969157,89.1974176 C511.915815,89.1974176 506.577988,88.1334481 501.955675,86.0070511 C497.334133,83.8791122 493.445068,80.972471 490.290021,77.2848145 C487.134974,73.5987 484.750956,69.3073565 483.137194,64.410013 C481.522661,59.5134405 480.716166,54.2776313 480.716166,48.7010435 C480.716166,44.9231809 481.110161,41.2547992 481.898923,37.6966695 C482.687685,34.1385397 483.843456,30.7908908 485.366236,27.6544939 C486.887474,24.5180969 488.768012,21.6392115 491.005535,19.0155244 C493.243058,16.3933794 495.8021,14.1459366 498.68189,12.2755092 C501.560909,10.4050817 504.742942,8.94636412 508.228759,7.90089847 C511.713035,6.85543282 515.492614,6.3327 519.564414,6.3327 C524.552965,6.3327 529.009507,6.99806641 532.935582,8.32802824 C536.860886,9.65799008 540.492428,11.7990359 543.830979,14.7511656 L540.25418,20.8042267 Z" id="Fill-14" fill="#25C155" sketch:type="MSShapeGroup" mask="url(#mask-4)"></path>
                <path d="M584.824689,81.9351321 C587.391442,81.9351321 589.804759,81.4123992 592.060787,80.3669336 C594.316815,79.3206969 596.297586,77.7802542 598.0031,75.7448344 C599.709386,73.7086435 601.065624,71.1774756 602.0749,68.1521015 C603.084175,65.1251855 603.606161,61.6318191 603.643171,57.6696893 C603.643171,54.6982847 603.193661,51.9843916 602.295414,49.5264679 C601.395624,47.0693153 600.121886,44.9413763 598.471114,43.1434221 C596.820343,41.3462389 594.811815,39.9522847 592.44553,38.9615595 C590.079245,37.9716053 587.429222,37.4758573 584.493918,37.4758573 C582.256395,37.4758573 580.238614,37.7788573 578.442119,38.3840863 C576.644082,38.9893153 575.048054,39.8243 573.654806,40.8874985 C572.260016,41.9522389 571.049502,43.1981626 570.022493,44.6291244 C568.995484,46.0600863 568.151979,47.5920481 567.491979,49.2234679 C566.831208,50.8564298 566.344689,52.552613 566.033194,54.3135595 C565.721699,56.0745061 565.56518,57.8169489 565.56518,59.5401168 C565.56518,61.2285901 565.684689,62.9617809 565.922937,64.7396893 C566.161185,66.5199107 566.555951,68.2338267 567.106465,69.8852924 C567.656208,71.535987 568.40796,73.0949336 569.361722,74.5621321 C570.316255,76.0293305 571.499012,77.3045519 572.911535,78.3854832 C574.323287,79.4687275 576.011068,80.3306969 577.973334,80.9721626 C579.9356,81.6143992 582.219386,81.9351321 584.824689,81.9351321 M583.779175,30.1028573 C586.090717,30.1028573 588.199479,30.3141092 590.107773,30.735842 C592.013755,31.1583458 593.774783,31.7535519 595.389315,32.5245443 C597.003077,33.2947656 598.489619,34.2484832 599.846629,35.3856969 C601.202867,36.5229107 602.468895,37.806613 603.643171,39.2368038 L603.973942,31.4790786 L612.943311,31.4790786 L612.722797,45.3993458 L612.722797,87.9326817 L603.643171,87.9326817 L603.753428,80.0091931 C602.872914,81.1834145 601.763404,82.3298802 600.424129,83.4485901 C599.084853,84.5673 597.571325,85.5487733 595.885086,86.3922389 C594.196535,87.2357046 592.335273,87.9149489 590.299759,88.4276588 C588.263474,88.9411397 586.126185,89.1978802 583.889432,89.1978802 C580.733614,89.1978802 577.872329,88.7853992 575.304806,87.9596664 C572.736512,87.1347046 570.444245,85.9982618 568.426465,84.5487962 C566.408685,83.1001015 564.65768,81.4039183 563.171909,79.4587046 C561.686138,77.5158038 560.466371,75.4241015 559.51261,73.1859107 C558.558848,70.9492618 557.843334,68.6285748 557.366839,66.2261626 C556.889572,63.8237504 556.651325,61.4483229 556.651325,59.1006511 C556.651325,55.4685061 557.21032,51.9111473 558.329853,48.4262618 C559.448614,44.9413763 561.135624,41.841987 563.391652,39.1273229 C565.648451,36.4126588 568.472727,34.2299794 571.866021,32.5792847 C575.258544,30.9285901 579.23011,30.1028573 583.779175,30.1028573" id="Fill-15" fill="#25C155" sketch:type="MSShapeGroup" mask="url(#mask-4)"></path>
                <path d="M638.474439,87.932913 L629.395584,87.932913 L629.395584,45.0695924 C629.395584,42.7581573 629.358575,40.4474931 629.285327,38.136829 C629.211308,35.8253939 629.138832,33.6064779 629.065584,31.4785389 L638.144439,31.4785389 L638.474439,40.0072565 C640.015724,36.8893634 642.106752,34.4684473 644.748294,32.7437374 C647.389065,31.0205695 650.323598,30.157829 653.551893,30.157829 C655.678388,30.157829 657.65993,30.3783328 659.494977,30.8185695 L659.604463,39.346516 C658.834206,38.943287 657.898949,38.6225542 656.798692,38.3843176 C655.697664,38.1460809 654.523388,38.0265771 653.276636,38.0265771 C651.076121,38.0265771 649.058341,38.4583328 647.224065,39.3195313 C645.389019,40.1815008 643.83,41.4197145 642.546238,43.0334015 C641.261706,44.6478595 640.263224,46.6100351 639.54771,48.9206992 C638.832196,51.2321344 638.474439,53.8180427 638.474439,56.6791954 L638.474439,87.932913 Z" id="Fill-16" fill="#25C155" sketch:type="MSShapeGroup" mask="url(#mask-4)"></path>
            </g>
        </g>
    </g>
</svg>
