<?xml version="1.0" encoding="UTF-8" standalone="no"?>
<svg
   xmlns:sketch="http://www.bohemiancoding.com/sketch/ns"
   xmlns:dc="http://purl.org/dc/elements/1.1/"
   xmlns:cc="http://creativecommons.org/ns#"
   xmlns:rdf="http://www.w3.org/1999/02/22-rdf-syntax-ns#"
   xmlns:svg="http://www.w3.org/2000/svg"
   xmlns="http://www.w3.org/2000/svg"
   xmlns:xlink="http://www.w3.org/1999/xlink"
   xmlns:sodipodi="http://sodipodi.sourceforge.net/DTD/sodipodi-0.dtd"
   xmlns:inkscape="http://www.inkscape.org/namespaces/inkscape"
   inkscape:version="1.0 (4035a4fb49, 2020-05-01)"
   sodipodi:docname="waivecar-blacktext-logo.svg"
   id="svg33"
   version="1.1"
   viewBox="0 0 660 101"
   height="101px"
   width="660px">
  <metadata
     id="metadata37">
    <rdf:RDF>
      <cc:Work
         rdf:about="">
        <dc:format>image/svg+xml</dc:format>
        <dc:type
           rdf:resource="http://purl.org/dc/dcmitype/StillImage" />
        <dc:title>Page 1</dc:title>
      </cc:Work>
    </rdf:RDF>
  </metadata>
  <sodipodi:namedview
     inkscape:current-layer="svg33"
     inkscape:window-maximized="0"
     inkscape:window-y="206"
     inkscape:window-x="738"
     inkscape:cy="50.5"
     inkscape:cx="330"
     inkscape:zoom="1.85"
     showgrid="false"
     id="namedview35"
     inkscape:window-height="1749"
     inkscape:window-width="2205"
     inkscape:pageshadow="2"
     inkscape:pageopacity="0"
     guidetolerance="10"
     gridtolerance="10"
     objecttolerance="10"
     borderopacity="1"
     bordercolor="#666666"
     pagecolor="#ffffff" />
  <!-- Generator: Sketch 3.4 (15575) - http://www.bohemiancoding.com/sketch -->
  <title
     id="title2">Page 1</title>
  <desc
     id="desc4">Created with Sketch.</desc>
  <defs
     id="defs8">
    <path
       d="M0,0.748633588 L659.604463,0.748633588 L659.604463,101 L0,101"
       id="path-1" />
    <path
       d="M0,1 L659.604463,1 L659.604463,101.251366 L0,101.251366 L0,1 Z"
       id="path-3" />
    <mask
       id="mask-4"
       sketch:name="Clip 11"
       fill="#ffffff">
      <use
         xlink:href="#path-3"
         id="use19"
         x="0"
         y="0"
         width="100%"
         height="100%" />
    </mask>
  </defs>
  <path
     d="M 35.089563,41.127817 31.469586,58.115092 59.596689,36.393924 58.482554,49.760618 91.901222,23.026458 C 82.98968,9.6597634 67.672437,0.74863359 50.127694,0.74863359 22.557273,0.74863359 7.7102803e-5,23.305557 7.7102803e-5,50.874702 c 0,7.24039 1.392476597197,13.923351 4.177429897197,20.049657 z"
     id="Fill-1"
     fill="#25c155"
     sketch:type="MSShapeGroup"
     style="fill-rule:evenodd;stroke:none;stroke-width:1" />
  <g
     id="Group-5"
     style="fill:none;fill-rule:evenodd;stroke:none;stroke-width:1">
    <mask
       id="mask-2"
       sketch:name="Clip 4"
       fill="#ffffff">
      <use
         xlink:href="#path-1"
         id="use11"
         x="0"
         y="0"
         width="100%"
         height="100%" />
    </mask>
    <g
       id="Clip-4" />
    <path
       d="M 96.913984,32.773421 47.343049,71.481863 47.899731,57.836069 20.05097,79.557237 20.886764,62.569963 4.1770444,71.202764 c 7.7981776,17.543931 25.3429206,29.797316 45.9509576,29.797316 27.848762,0 50.127618,-22.556156 50.127618,-50.125301 0,-6.405404 -1.114136,-12.53171 -3.341636,-18.101358"
       id="Fill-3"
       fill="#25c155"
       sketch:type="MSShapeGroup"
       mask="url(#mask-2)" />
  </g>
  <path
     d="m 206.08276,31.47877 -3.46654,-12.160091 -3.79654,12.160091 -17.93874,56.454374 h -11.7204 L 145.88398,7.8185565 h 10.2354 l 17.05745,60.9099385 2.09103,8.804733 2.42103,-7.978229 20.24951,-61.7364425 h 9.96013 l 19.75451,61.1312135 2.53052,8.527947 1.98154,-7.813237 17.11297,-61.8459235 h 9.90462 L 235.9069,87.933144 h -11.66566 z"
     id="Fill-6"
     fill="#ffffff"
     sketch:type="MSShapeGroup"
     style="fill-rule:evenodd;stroke:none;stroke-width:1;fill:#000000" />
  <path
     d="m 289.33691,81.935132 c 2.56752,0 4.9793,-0.522733 7.2361,-1.568198 2.25602,-1.046237 4.23679,-2.58668 5.94231,-4.6221 1.70628,-2.036191 3.06252,-4.567358 4.07257,-7.592733 1.0085,-3.026916 1.53049,-6.520282 1.5675,-10.482412 0,-2.971404 -0.44951,-5.685297 -1.34776,-8.143221 -0.89902,-2.457153 -2.17353,-4.585092 -3.8243,-6.383046 -1.65077,-1.797183 -3.6593,-3.191137 -6.02558,-4.181863 -2.36629,-0.989954 -5.01708,-1.485702 -7.95084,-1.485702 -2.2383,0 -4.25608,0.303 -6.05334,0.908229 -1.79727,0.605229 -3.3933,1.440214 -4.78732,2.503412 -1.39402,1.064741 -2.60453,2.310665 -3.63154,3.741626 -1.02701,1.430962 -1.87128,2.962924 -2.53051,4.594344 -0.66077,1.632962 -1.14729,3.329145 -1.45879,5.090091 -0.31227,1.760947 -0.46801,3.50339 -0.46801,5.226558 0,1.688473 0.11874,3.421664 0.35775,5.199572 0.23825,1.780222 0.63302,3.494138 1.18353,5.145603 0.54975,1.650695 1.3015,3.209642 2.25603,4.67684 0.95376,1.467198 2.13652,2.74242 3.54904,3.823351 1.41175,1.083244 3.09953,1.945214 5.06257,2.58668 1.9615,0.642236 4.24528,0.962969 6.85059,0.962969 m -1.04552,-51.832275 c 2.31077,0 4.41953,0.211252 6.32783,0.632985 1.90675,0.422504 3.66778,1.01771 5.28231,1.788702 1.61376,0.770222 3.09953,1.723939 4.45732,2.861153 1.357,1.137214 2.62226,2.420916 3.79654,3.851107 l 0.33,-7.757725 h 8.96937 l -0.21975,13.920267 v 42.533336 h -9.07962 l 0.11025,-7.923489 c -0.88051,1.174221 -1.99002,2.320687 -3.32929,3.439397 -1.33928,1.11871 -2.85281,2.100183 -4.53905,2.943649 -1.68778,0.843466 -3.54981,1.52271 -5.58532,2.03542 -2.03629,0.513481 -4.17358,0.770221 -6.41033,0.770221 -3.15582,0 -6.0171,-0.412481 -8.58463,-1.238214 -2.56752,-0.824961 -4.86056,-1.961404 -6.87834,-3.41087 -2.01778,-1.448695 -3.76878,-3.144878 -5.25455,-5.090091 -1.48578,-1.942901 -2.70554,-4.034603 -3.6593,-6.272794 -0.95377,-2.236649 -1.67005,-4.557336 -2.14577,-6.959748 -0.47727,-2.402413 -0.71552,-4.77784 -0.71552,-7.125512 0,-3.632145 0.559,-7.189504 1.67853,-10.674389 1.11799,-3.484886 2.80577,-6.584275 5.06257,-9.298939 2.25526,-2.714664 5.0803,-4.897344 8.4736,-6.548038 3.39252,-1.650695 7.36409,-2.476428 11.91315,-2.476428"
     id="Fill-8"
     fill="#ffffff"
     sketch:type="MSShapeGroup"
     style="fill-rule:evenodd;stroke:none;stroke-width:1;fill:#000000" />
  <g
     id="Clip-11"
     style="fill:none;fill-rule:evenodd;stroke:none;stroke-width:1" />
  <path
     d="m 342.76668,16.017366 h -8.41885 V 7.4886488 h 8.41885 z m -8.85911,15.461481 h 9.07885 v 56.454374 h -9.07885 z"
     id="Fill-10"
     fill="#ffffff"
     sketch:type="MSShapeGroup"
     mask="url(#mask-4)"
     style="fill-rule:evenodd;stroke:none;stroke-width:1;fill:#000000" />
  <path
     d="m 353.16654,31.47877 h 10.01488 l 15.4622,37.965206 c 0.25598,0.625275 0.56825,1.459489 0.93526,2.504184 0.36623,1.045465 0.71551,2.100954 1.04551,3.164152 0.40325,1.210458 0.80727,2.494931 1.21051,3.851878 0.36624,-1.32071 0.75176,-2.586679 1.15577,-3.797137 0.33078,-1.026191 0.66078,-2.071657 0.99001,-3.135626 0.32999,-1.06397 0.64149,-1.925939 0.93525,-2.587451 L 400.10287,31.47877 h 9.7404 l -23.82631,56.454374 h -9.24386 z"
     id="Fill-12"
     fill="#ffffff"
     sketch:type="MSShapeGroup"
     mask="url(#mask-4)"
     style="fill-rule:evenodd;stroke:none;stroke-width:1;fill:#000000" />
  <path
     d="m 460.08161,54.423349 -0.0548,-0.770222 c -0.1835,-2.383908 -0.64997,-4.566587 -1.40096,-6.548038 -0.75098,-1.980679 -1.7857,-3.686114 -3.10416,-5.117076 -1.31922,-1.430191 -2.92065,-2.539649 -4.80735,-3.329145 -1.88671,-0.787954 -4.01937,-1.182702 -6.39877,-1.182702 -2.56366,0 -4.87212,0.449488 -6.92306,1.348465 -2.05093,0.898977 -3.81813,2.117916 -5.30082,3.658359 -1.48345,1.541214 -2.6824,3.338397 -3.59838,5.392321 -0.91521,2.054694 -1.5382,4.236603 -1.86743,6.548038 z m 7.31859,27.182107 c -3.04556,2.640649 -6.42035,4.566587 -10.12514,5.776275 -3.70479,1.210458 -7.90535,1.816457 -12.60014,1.816457 -4.43958,0 -8.40112,-0.724732 -11.88539,-2.173427 -3.48582,-1.448695 -6.42961,-3.466382 -8.8329,-6.05229 -2.40253,-2.586679 -4.2368,-5.676817 -5.50206,-9.271954 -1.26525,-3.594367 -1.89827,-7.537993 -1.89827,-11.830107 0,-4.071611 0.62299,-7.904214 1.87129,-11.500122 1.24675,-3.594367 3.06175,-6.748496 5.44731,-9.46316 2.38402,-2.714665 5.29079,-4.860336 8.72187,-6.438558 3.42953,-1.576679 7.34558,-2.365404 11.74738,-2.365404 4.32855,0 8.08886,0.707 11.28091,2.118687 3.19052,1.412458 5.81355,3.356129 7.86834,5.832557 2.05402,2.475656 3.58528,5.419305 4.59456,8.830946 1.00851,3.410871 1.51353,7.117031 1.51353,11.114626 0,0.404 -0.01,0.871993 -0.0278,1.403206 -0.0193,0.531214 -0.0463,1.01771 -0.0825,1.457947 h -43.25082 l 0.165,2.476428 c 0.21975,2.7509 0.77874,5.263565 1.67622,7.537992 0.89747,2.274427 2.1342,4.236603 3.70941,5.887298 1.57522,1.649923 3.48891,2.925916 5.74108,3.824893 2.25294,0.898977 4.82663,1.347694 7.7203,1.347694 3.8829,0 7.4358,-0.678473 10.65947,-2.03619 3.22289,-1.356947 6.11656,-3.30139 8.68254,-5.831787 z"
     id="Fill-13"
     fill="#ffffff"
     sketch:type="MSShapeGroup"
     mask="url(#mask-4)"
     style="fill-rule:evenodd;stroke:none;stroke-width:1;fill:#000000" />
  <path
     d="m 540.25418,20.804227 c -5.61231,-4.2181 -12.16065,-6.328306 -19.64502,-6.328306 -3.37479,0 -6.45659,0.451031 -9.24386,1.350008 -2.78804,0.899748 -5.29156,2.147985 -7.51058,3.743939 -2.22056,1.598267 -4.14659,3.478718 -5.77809,5.644435 -1.63226,2.166489 -2.99004,4.516473 -4.0718,7.049183 -1.08252,2.533481 -1.88979,5.20497 -2.42102,8.012924 -0.53201,2.808725 -0.79802,5.625931 -0.79802,8.45316 0,4.332206 0.56825,8.45316 1.70629,12.362863 1.13572,3.909702 2.87902,7.34216 5.2268,10.298145 2.34778,2.955214 5.31855,5.305969 8.91462,7.048412 3.59453,1.743214 7.84907,2.615206 12.76591,2.615206 4.51206,0 8.75811,-0.650717 12.73893,-1.952924 3.97927,-1.301435 7.47357,-3.273633 10.48135,-5.915053 l 3.19206,7.757725 c -3.4118,2.751672 -7.44736,4.815619 -12.10591,6.191069 -4.65855,1.37545 -9.90463,2.062405 -15.73668,2.062405 -6.05335,0 -11.39117,-1.06397 -16.01349,-3.190367 -4.62154,-2.127939 -8.5106,-5.03458 -11.66565,-8.722237 -3.15505,-3.686114 -5.53906,-7.977458 -7.15283,-12.874801 -1.61453,-4.896572 -2.42102,-10.132382 -2.42102,-15.70897 0,-3.777862 0.39399,-7.446244 1.18275,-11.004374 0.78876,-3.558129 1.94454,-6.905778 3.46732,-10.042175 1.52123,-3.136397 3.40177,-6.015283 5.63929,-8.63897 2.23753,-2.622145 4.79657,-4.869587 7.67636,-6.740015 2.87902,-1.870427 6.06105,-3.3291449 9.54687,-4.3746105 3.48427,-1.0454657 7.26385,-1.5681985 11.33565,-1.5681985 4.98855,0 9.4451,0.6653664 13.37117,1.9953282 3.92531,1.3299619 7.55685,3.4710078 10.8954,6.4231378 z"
     id="Fill-14"
     fill="#25c155"
     sketch:type="MSShapeGroup"
     mask="url(#mask-4)"
     style="fill-rule:evenodd;stroke:none;stroke-width:1" />
  <path
     d="m 584.82469,81.935132 c 2.56675,0 4.98007,-0.522733 7.2361,-1.568198 2.25603,-1.046237 4.2368,-2.58668 5.94231,-4.6221 1.70629,-2.036191 3.06252,-4.567358 4.0718,-7.592733 1.00927,-3.026916 1.53126,-6.520282 1.56827,-10.482412 0,-2.971404 -0.44951,-5.685297 -1.34776,-8.143221 -0.89979,-2.457153 -2.17352,-4.585092 -3.8243,-6.383046 -1.65077,-1.797183 -3.65929,-3.191137 -6.02558,-4.181863 -2.36628,-0.989954 -5.01631,-1.485702 -7.95161,-1.485702 -2.23753,0 -4.25531,0.303 -6.0518,0.908229 -1.79804,0.605229 -3.39407,1.440214 -4.78731,2.503412 -1.39479,1.064741 -2.60531,2.310665 -3.63232,3.741626 -1.02701,1.430962 -1.87051,2.962924 -2.53051,4.594344 -0.66077,1.632962 -1.14729,3.329145 -1.45879,5.090091 -0.31149,1.760947 -0.46801,3.50339 -0.46801,5.226558 0,1.688473 0.11951,3.421664 0.35776,5.199572 0.23825,1.780222 0.63301,3.494138 1.18352,5.145603 0.54975,1.650695 1.3015,3.209642 2.25526,4.67684 0.95453,1.467198 2.13729,2.74242 3.54981,3.823351 1.41176,1.083244 3.09954,1.945214 5.0618,2.58668 1.96227,0.642236 4.24606,0.962969 6.85136,0.962969 m -1.04552,-51.832275 c 2.31155,0 4.42031,0.211252 6.3286,0.632985 1.90598,0.422504 3.66701,1.01771 5.28154,1.788702 1.61377,0.770222 3.10031,1.723939 4.45732,2.861153 1.35624,1.137214 2.62226,2.420916 3.79654,3.851107 l 0.33077,-7.757725 h 8.96937 l -0.22051,13.920267 v 42.533336 h -9.07963 l 0.11026,-7.923489 c -0.88052,1.174221 -1.99003,2.320687 -3.3293,3.439397 -1.33928,1.11871 -2.85281,2.100183 -4.53904,2.943649 -1.68855,0.843466 -3.54982,1.52271 -5.58533,2.03542 -2.03629,0.513481 -4.17358,0.770221 -6.41033,0.770221 -3.15582,0 -6.0171,-0.412481 -8.58462,-1.238214 -2.5683,-0.824961 -4.86056,-1.961404 -6.87835,-3.41087 -2.01778,-1.448695 -3.76878,-3.144878 -5.25455,-5.090091 -1.48577,-1.942901 -2.70554,-4.034603 -3.6593,-6.272794 -0.95376,-2.236649 -1.66928,-4.557336 -2.14577,-6.959748 -0.47727,-2.402413 -0.71551,-4.77784 -0.71551,-7.125512 0,-3.632145 0.55899,-7.189504 1.67852,-10.674389 1.11876,-3.484886 2.80577,-6.584275 5.0618,-9.298939 2.2568,-2.714664 5.08108,-4.897344 8.47437,-6.548038 3.39252,-1.650695 7.36409,-2.476428 11.91315,-2.476428"
     id="Fill-15"
     fill="#25c155"
     sketch:type="MSShapeGroup"
     mask="url(#mask-4)"
     style="fill-rule:evenodd;stroke:none;stroke-width:1" />
  <path
     d="m 638.47444,87.932913 h -9.07886 V 45.069592 c 0,-2.311435 -0.037,-4.622099 -0.11025,-6.932763 -0.074,-2.311435 -0.1465,-4.530351 -0.21975,-6.65829 h 9.07886 l 0.33,8.528717 c 1.54128,-3.117893 3.63231,-5.538809 6.27385,-7.263519 2.64077,-1.723168 5.57531,-2.585908 8.8036,-2.585908 2.1265,0 4.10804,0.220504 5.94309,0.66074 l 0.10948,8.527947 c -0.77025,-0.403229 -1.70551,-0.723962 -2.80577,-0.962198 -1.10103,-0.238237 -2.2753,-0.357741 -3.52205,-0.357741 -2.20052,0 -4.2183,0.431756 -6.05258,1.292954 -1.83504,0.86197 -3.39406,2.100183 -4.67782,3.71387 -1.28453,1.614459 -2.28302,3.576634 -2.99853,5.887298 -0.71551,2.311435 -1.07327,4.897344 -1.07327,7.758496 z"
     id="Fill-16"
     fill="#25c155"
     sketch:type="MSShapeGroup"
     mask="url(#mask-4)"
     style="fill-rule:evenodd;stroke:none;stroke-width:1" />
</svg>
