<svg xmlns="http://www.w3.org/2000/svg" width="1636" height="283" viewBox="0 0 1636 283">
    <path fill="#FFF" fill-rule="evenodd" d="M66 196.331c3.777 14.012 10.408-15.937 36-21.225 31.29-7.096 56.478-31.896 90-31.837 31.81-.459 58.011 15.448 90 17.687 35.625 3.022 70.578-4.091 103-12.381 38.317-10.15 64.457-19.177 106-11.497 29.166 5.107 56.13 14.549 86 19.456 11.603 1.43 21.988 3.265 34 .885 36.267-5.963 60.378-27.42 87-42.45 28.089-16.659 55.92-32.25 80-51.294 20.62-17.328 44.174-38.96 72-52.178C873.215.689 908.01-2.436 936 1.769c70.749 10.88 87.476 63.29 149 82.247 37.045 11.786 73.29 2.973 112 3.537 46.881 1.025 69.263 30.767 112 37.144 60.445 8.533 133.496-18.127 188 6.19 12.726 5.42 23.986 11.635 37 16.804 12.285 4.444 24.931 8.452 37 13.265 14.91 6.941 29.64 14.02 44 21.225 6.065 2.435 11.587 6.828 19 7.075l2 93.744-1544-2.653-92-58.369 66-25.647z"/>
</svg>
