<svg xmlns="http://www.w3.org/2000/svg" style="display: none;">

  <!-- Logo -->
  <symbol id="logo" viewBox="0 0 222 34">
    <path fill="#1dbb3e" d="M11.803 13.834L1.405 23.856C.468 21.796 0 19.548 0 17.112 0 7.84 7.587.252 16.861.252a16.842 16.842 0 0 1 14.051 7.493l-11.24 8.993.374-4.496-9.46 7.306 1.217-5.714zm20.795-2.81c.75 1.873 1.124 3.934 1.124 6.088 0 9.274-7.493 16.86-16.86 16.86A16.87 16.87 0 0 1 1.404 23.95l5.62-2.904-.28 5.714 9.367-7.306-.188 4.59 16.674-13.02zm149.124-4.026c-1.888-1.419-4.09-2.129-6.608-2.129-1.135 0-2.172.152-3.11.454a9.057 9.057 0 0 0-2.526 1.26 9 9 0 0 0-1.943 1.898 11.302 11.302 0 0 0-1.37 2.371c-.364.852-.635 1.751-.814 2.696a15.245 15.245 0 0 0-.269 2.843c0 1.457.192 2.843.574 4.158.382 1.315.969 2.47 1.759 3.464.79.994 1.788 1.785 2.998 2.371 1.21.586 2.64.88 4.294.88 1.518 0 2.946-.22 4.285-.657a9.978 9.978 0 0 0 3.526-1.99l1.073 2.61c-1.147.925-2.505 1.62-4.072 2.082-1.567.463-3.331.694-5.293.694-2.036 0-3.832-.358-5.386-1.073-1.555-.716-2.863-1.694-3.924-2.934-1.062-1.24-1.863-2.684-2.406-4.33-.543-1.648-.815-3.409-.815-5.285 0-1.27.133-2.504.398-3.701a15.27 15.27 0 0 1 1.167-3.378 13.615 13.615 0 0 1 1.896-2.906 11.897 11.897 0 0 1 2.582-2.267c.969-.63 2.04-1.12 3.212-1.471 1.172-.352 2.443-.528 3.813-.528 1.678 0 3.177.224 4.497.671 1.32.448 2.542 1.168 3.665 2.16l-1.203 2.037zm14.64 3.128c.778 0 1.487.07 2.129.212a8.254 8.254 0 0 1 1.776.602c.543.26 1.043.58 1.5.962a9.8 9.8 0 0 1 1.277 1.296l.11-2.61h3.018l-.074 4.683v14.306h-3.054l.037-2.665c-.296.395-.67.78-1.12 1.157-.45.376-.96.706-1.527.99a9.244 9.244 0 0 1-1.879.685 8.788 8.788 0 0 1-2.156.259c-1.061 0-2.024-.139-2.887-.417a8.267 8.267 0 0 1-2.314-1.147 8.302 8.302 0 0 1-1.767-1.712 9.759 9.759 0 0 1-1.231-2.11 12.278 12.278 0 0 1-.962-4.738c0-1.221.187-2.418.564-3.59a9.278 9.278 0 0 1 1.702-3.128c.76-.913 1.71-1.647 2.85-2.203 1.142-.555 2.478-.832 4.008-.832zm.352 17.434a5.72 5.72 0 0 0 2.434-.527 5.749 5.749 0 0 0 1.998-1.555c.574-.685 1.03-1.536 1.37-2.554.34-1.018.515-2.193.528-3.526 0-1-.152-1.912-.454-2.74a6.375 6.375 0 0 0-1.286-2.146 5.701 5.701 0 0 0-2.027-1.407c-.796-.333-1.687-.5-2.674-.5-.753 0-1.432.102-2.036.306a5.55 5.55 0 0 0-1.61.842c-.47.358-.877.777-1.222 1.259-.346.48-.63.996-.851 1.545a8.496 8.496 0 0 0-.491 1.712 10.079 10.079 0 0 0-.157 1.758c0 .568.04 1.151.12 1.75.08.598.213 1.174.398 1.73.185.555.438 1.08.759 1.573.32.494.718.922 1.194 1.286a5.66 5.66 0 0 0 1.702.87c.66.216 1.428.324 2.305.324zm18.046 2.017h-3.054V15.16c0-.778-.013-1.555-.037-2.332l-.074-2.24h3.054l.11 2.869c.519-1.049 1.222-1.863 2.11-2.443a5.304 5.304 0 0 1 2.962-.87c.715 0 1.382.074 2 .222l.036 2.869a3.75 3.75 0 0 0-.944-.324c-.37-.08-.765-.12-1.184-.12a4.73 4.73 0 0 0-2.036.435 4.353 4.353 0 0 0-1.574 1.249c-.432.543-.768 1.203-1.008 1.98-.241.778-.361 1.647-.361 2.61v10.512z"/>
    <path d="M69.319 10.588l-1.166-4.09-1.277 4.09-6.034 18.99h-3.943L49.07 2.63h3.443l5.737 20.488.704 2.961.814-2.683L66.58 2.63h3.35l6.645 20.562.851 2.869.667-2.628L83.848 2.63h3.332l-7.83 26.948h-3.923l-6.108-18.99zm27.652-.462c.777 0 1.486.07 2.128.212a8.251 8.251 0 0 1 1.777.602c.543.26 1.043.58 1.5.962.456.383.881.815 1.276 1.296l.111-2.61h3.017l-.074 4.683v14.306h-3.054l.037-2.665c-.296.395-.669.78-1.12 1.157-.45.376-.96.706-1.526.99a9.239 9.239 0 0 1-1.879.685 8.788 8.788 0 0 1-2.156.259c-1.062 0-2.024-.139-2.888-.417a8.27 8.27 0 0 1-2.313-1.147 8.302 8.302 0 0 1-1.768-1.712 9.759 9.759 0 0 1-1.23-2.11 12.278 12.278 0 0 1-.962-4.738c-.001-1.221.187-2.418.564-3.59a9.27 9.27 0 0 1 1.702-3.128c.759-.913 1.71-1.647 2.85-2.203 1.142-.555 2.478-.832 4.008-.832zm.351 17.434a5.72 5.72 0 0 0 2.434-.527 5.749 5.749 0 0 0 2-1.555c.573-.685 1.03-1.536 1.369-2.554.34-1.018.515-2.193.527-3.526 0-1-.15-1.912-.453-2.74a6.371 6.371 0 0 0-1.286-2.146 5.701 5.701 0 0 0-2.027-1.407c-.796-.333-1.688-.5-2.675-.5-.752 0-1.431.102-2.036.306a5.556 5.556 0 0 0-1.61.842 5.913 5.913 0 0 0-1.222 1.259 7.39 7.39 0 0 0-.85 1.545 8.496 8.496 0 0 0-.491 1.712 10.054 10.054 0 0 0-.158 1.758c0 .568.04 1.151.12 1.75.08.598.213 1.174.399 1.73.185.555.437 1.08.758 1.573.321.494.72.922 1.194 1.286a5.658 5.658 0 0 0 1.703.87c.66.216 1.428.324 2.304.324zm17.972-22.172h-2.832v-2.87h2.832v2.87zm-2.98 5.2h3.054v18.99h-3.054v-18.99zm6.478 0h3.369l5.2 12.77c.087.21.192.491.316.843.123.351.24.706.351 1.064.136.407.272.84.407 1.296.124-.445.253-.87.39-1.278.11-.345.221-.696.332-1.054.111-.358.216-.648.315-.87l5.108-12.77h3.276l-8.014 18.989h-3.11l-7.94-18.99zm38.424 16.861a9.805 9.805 0 0 1-3.405 1.943c-1.246.407-2.66.611-4.239.611-1.493 0-2.825-.244-3.997-.731-1.173-.487-2.163-1.166-2.971-2.036-.809-.87-1.426-1.91-1.851-3.119-.426-1.209-.639-2.535-.639-3.979 0-1.37.21-2.658.63-3.868a9.464 9.464 0 0 1 1.832-3.183 8.674 8.674 0 0 1 2.934-2.166c1.153-.53 2.47-.795 3.951-.795 1.456 0 2.721.237 3.795.712 1.073.475 1.955 1.13 2.646 1.962.691.833 1.206 1.823 1.546 2.97.339 1.148.509 2.394.509 3.74a14.45 14.45 0 0 1-.037.961h-14.548l.055.833a8.78 8.78 0 0 0 .564 2.536 6.048 6.048 0 0 0 1.248 1.98c.53.555 1.173.984 1.93 1.287.759.302 1.624.453 2.598.453 1.306 0 2.5-.228 3.585-.685a9.235 9.235 0 0 0 2.92-1.961l.944 2.535zm-2.461-9.143l-.019-.259a7.9 7.9 0 0 0-.47-2.203 5.26 5.26 0 0 0-1.045-1.72 4.564 4.564 0 0 0-1.617-1.12c-.635-.266-1.352-.398-2.152-.398-.863 0-1.64.15-2.329.453a5.52 5.52 0 0 0-1.783 1.23 6.274 6.274 0 0 0-1.21 1.815 8.24 8.24 0 0 0-.629 2.202h11.254z"/>
  </symbol>

  <!-- Facebook Icon -->
  <symbol id="icon-facebook" viewBox="0 0 11 20">
    <path fill-rule="evenodd" d="M7.14 20v-9.123h3.243l.486-3.555h-3.73v-2.27c0-1.03.304-1.731 1.867-1.731L11 3.32V.14A28.246 28.246 0 0 0 8.094 0C5.22 0 3.251 1.657 3.251 4.7v2.622H0v3.555h3.251V20H7.14z"/>
  </symbol>

  <!-- Instagram Icon -->
  <symbol id="icon-instagram" viewBox="0 0 22 22">
    <path fill-rule="evenodd" d="M11 0C8.012 0 7.638.014 6.465.066c-1.171.055-1.969.24-2.67.512a5.373 5.373 0 0 0-1.948 1.269 5.344 5.344 0 0 0-1.27 1.948C.306 4.496.12 5.294.067 6.465.011 7.638 0 8.012 0 11c0 2.988.014 3.362.066 4.535.055 1.171.24 1.97.512 2.67.28.723.657 1.338 1.269 1.948.61.612 1.223.99 1.948 1.27.701.272 1.499.457 2.67.511C7.638 21.989 8.012 22 11 22c2.988 0 3.362-.014 4.535-.066 1.171-.055 1.97-.24 2.67-.512a5.373 5.373 0 0 0 1.948-1.269c.612-.61.99-1.223 1.27-1.948.272-.701.457-1.499.511-2.67.055-1.173.066-1.547.066-4.535 0-2.988-.014-3.362-.066-4.535-.055-1.171-.24-1.97-.512-2.67a5.373 5.373 0 0 0-1.269-1.948 5.344 5.344 0 0 0-1.948-1.27c-.701-.272-1.499-.457-2.67-.511C14.362.011 13.988 0 11 0zm.022 2.029c2.924 0 3.271.013 4.425.066 1.068.049 1.647.227 2.033.378.512.198.876.435 1.26.819.383.383.62.748.818 1.26.15.386.328.966.378 2.034.052 1.156.064 1.503.064 4.43 0 2.925-.014 3.273-.068 4.428-.055 1.068-.233 1.648-.384 2.034a3.48 3.48 0 0 1-.821 1.26c-.383.384-.753.62-1.26.82-.383.15-.971.328-2.039.378-1.163.052-1.506.064-4.435.064-2.93 0-3.271-.014-4.435-.068-1.068-.055-1.656-.233-2.04-.384a3.408 3.408 0 0 1-1.259-.822 3.353 3.353 0 0 1-.821-1.26c-.15-.384-.328-.973-.383-2.041C2.014 14.274 2 13.918 2 11s.014-3.274.055-4.438c.055-1.069.232-1.658.383-2.041.192-.521.438-.877.821-1.26.384-.384.74-.63 1.26-.823.383-.15.958-.328 2.025-.383C7.708 2.014 8.05 2 10.98 2l.043.029zM10.5 5a5.5 5.5 0 1 0 0 11 5.5 5.5 0 0 0 0-11zm0 9a3.5 3.5 0 1 1 0-7 3.5 3.5 0 0 1 0 7zM19 5.5a1.5 1.5 0 1 1-3 0 1.5 1.5 0 0 1 3 0z"/>
  </symbol>

  <!-- Twitter Icon -->
  <symbol id="icon-twitter" viewBox="0 0 21 18">
    <path fill-rule="evenodd" d="M20.42.333a8.333 8.333 0 0 1-2.737 1.1A4.198 4.198 0 0 0 14.538 0c-2.377 0-4.306 2.035-4.306 4.544 0 .356.037.702.11 1.035-3.58-.19-6.754-1.997-8.88-4.75a4.73 4.73 0 0 0-.583 2.288c0 1.575.76 2.966 1.917 3.781a4.142 4.142 0 0 1-1.953-.566v.055c0 2.203 1.485 4.04 3.458 4.456a4.085 4.085 0 0 1-1.946.08c.548 1.804 2.138 3.118 4.024 3.154-1.475 1.219-3.333 1.945-5.351 1.945-.348 0-.692-.02-1.028-.062A11.756 11.756 0 0 0 6.605 18c7.925 0 12.258-6.923 12.258-12.928 0-.198-.004-.395-.011-.59A8.992 8.992 0 0 0 21 2.132a8.259 8.259 0 0 1-2.474.715A4.519 4.519 0 0 0 20.421.333"/>
  </symbol>

  <!-- Location Icon -->
  <symbol id="icon-location" viewBox="0 0 45 44">
    <path d="M23 14c-4.42 0-8 3.58-8 8s3.58 8 8 8 8-3.58 8-8-3.58-8-8-8zm17.88 6C39.96 11.66 33.34 5.04 25 4.12V0h-4v4.12C12.66 5.04 6.04 11.66 5.12 20H1v4h4.12c.92 8.34 7.54 14.96 15.88 15.88V44h4v-4.12c8.34-.92 14.96-7.54 15.88-15.88H45v-4h-4.12zM23 36c-7.73 0-14-6.27-14-14S15.27 8 23 8s14 6.27 14 14-6.27 14-14 14z"/>
  </symbol>

  <!-- Plus Icon -->
  <symbol id="icon-plus" viewBox="0 0 14 14">
    <path fill-rule="evenodd" d="M8 6V0H6v6H0v2h6v6h2V8h6V6H8z"/>
  </symbol>

  <!-- Medium Icon -->
  <symbol id="icon-medium" viewBox="0 0 19 16">
    <path fill-rule="evenodd" d="M13.57 13.275l-.316.516.916.457 3.15 1.575c.171.087.337.126.48.126.318 0 .535-.203.535-.565v-9.85l-4.763 7.74h-.001zm4.702-9.95c-.005-.004 0-.012-.004-.015L12.731.542a.587.587 0 0 0-.215-.05c-.018 0-.034-.012-.054-.012a.63.63 0 0 0-.536.292l-.275.447-.574.934-2.17 3.535 2.17 3.53.574.934.574.932.677 1.09 5.406-8.768c.022-.035.011-.07-.023-.092l-.013.01zm-7.196 8.085L8.229 6.78l-.338-.547-.338-.548-.287-.477v5.586l3.81 1.908.575.287.574.287-.574-.933-.574-.933-.001-.001zM.846.71L.677.627A.626.626 0 0 0 .402.556C.165.556 0 .739 0 1.046v11.663c0 .312.23.682.507.822l4.758 2.387a.69.69 0 0 0 .344.092c.295 0 .503-.23.503-.608V3.384a.058.058 0 0 0-.035-.054L.847.71H.846z"/>
  </symbol>

  <!-- Arrow Icon -->
  <symbol id="icon-arrow" viewBox="0 0 8 12">
    <path fill-rule="evenodd" d="M1.41 0L0 1.41 4.58 6 0 10.59 1.41 12l6-6z"/>
  </symbol>

  <!-- Classic Arrow Icon -->
  <symbol id="icon-classic-arrow" viewBox="0 0 20 14">
    <path fill-rule="evenodd" d="M13 0l-1.41 1.41L16.17 6H0v2h16.17l-4.58 4.59L13 14l7-7z"/>
  </symbol>

  <!-- Map Marker Icon -->
  <symbol id="icon-map-marker" viewBox="0 0 18 23">
    <path fill="none" d="M14.626 3.416l.044.045c3.107 3.22 3.107 8.442 0 11.662L9 21l-5.67-5.877c-3.107-3.22-3.107-8.442 0-11.662l.044-.045c3.107-3.221 8.145-3.221 11.252 0zM11 9a2 2 0 1 0-4 0 2 2 0 0 0 4 0z"/>
  </symbol>

  <!-- Phone Icon -->
  <symbol id="icon-phone" viewBox="0 0 23 23">
    <path fill="none" d="M7.684 9.384l.667-1.84c.174-.411.22-.865.134-1.302L7.389 1.906 2 2.683a19.812 19.812 0 0 0 5.702 12.758c3.575 3.61 8.285 5.473 12.966 5.71l.577-5.638-4.028-.942a2.175 2.175 0 0 0-1.36.165l-2.015.869c-1.27-.813-2.31-1.555-3.464-2.722-1.155-1.166-1.876-2.176-2.694-3.5z"/>
  </symbol>

  <!-- Email Icon -->
  <symbol id="icon-email" viewBox="0 0 22 17">
    <g fill="none" fill-rule="evenodd">
      <path d="M17.522 16H4.478C2.558 16 1 14.42 1 12.47V1h20v11.47c0 1.95-1.557 3.53-3.478 3.53z"/>
      <path d="M4 4l6.533 5L18 4"/>
    </g>
  </symbol>

  <!-- Hamburger Icon -->
  <symbol id="icon-hamburger" viewBox="0 0 26 16">
    <path fill-rule="evenodd" d="M0 0h26v2H0V0zm0 7h26v2H0V7zm0 7h26v2H0v-2z"/>
  </symbol>

</svg>
