<svg xmlns="http://www.w3.org/2000/svg" width="64" height="61" viewBox="0 0 64 61">
    <g fill="none" fill-rule="evenodd" stroke-linecap="round" stroke-linejoin="round" stroke-width="2">
        <path stroke="#56665A" d="M30 1.333v8M30 52v8m30-30h-5.333M9.333 30h-8M51.41 9.925l-3.77 3.77M13.696 47.638l-3.774 3.77m3.774-37.713l-3.774-3.77"/>
        <path stroke="#1DB93D" d="M33.333 30.667c0 .736-.298 1.402-.781 1.885a2.658 2.658 0 0 1-1.885.781 2.658 2.658 0 0 1-1.886-.781A2.658 2.658 0 0 1 28 30.667c0-.736.299-1.403.781-1.886A2.658 2.658 0 0 1 30.667 28a2.66 2.66 0 0 1 1.885.781c.483.483.781 1.15.781 1.886zm-4.552-1.886l-2.61-2.61-2.614-2.614-2.61-2.61m11.605 7.834L45.333 16"/>
        <path stroke="#56665A" d="M42.08 57.706a29.412 29.412 0 0 1-11.414 2.293c-4.053 0-7.92-.824-11.413-2.293-3.52-1.494-6.667-3.654-9.334-6.291-2.64-2.667-4.8-5.816-6.293-9.333a29.483 29.483 0 0 1-2.293-11.416c0-4.051.826-7.918 2.293-11.414A29.885 29.885 0 0 1 9.92 9.92c2.667-2.637 5.814-4.8 9.334-6.29a29.413 29.413 0 0 1 11.413-2.297c4.053 0 7.92.827 11.413 2.296 3.52 1.49 6.667 3.654 9.334 6.29 2.64 2.668 4.8 5.817 6.293 9.334A29.48 29.48 0 0 1 60 30.666c0 4.053-.826 7.92-2.293 11.416a29.983 29.983 0 0 1-4.4 7.25"/>
        <path stroke="#56665A" d="M62.667 50H52V39.667"/>
    </g>
</svg>
