<svg xmlns="http://www.w3.org/2000/svg" width="44" height="66" viewBox="0 0 44 66">
    <g fill="none" fill-rule="evenodd" stroke-linecap="round" stroke-linejoin="round" stroke-width="2">
        <path stroke="#56665A" d="M42.846 44.077C42.846 55.633 33.48 65 21.923 65 10.367 65 1 55.633 1 44.077c0-11.556 9.367-20.923 20.923-20.923 11.556 0 20.923 9.367 20.923 20.923z"/>
        <path stroke="#1DBB3E" d="M36 44.519C36 51.732 29.732 58 21.481 58 14.268 58 8 51.732 8 44.519 8 36.269 14.268 30 21.481 30 29.731 30 36 36.268 36 44.519z"/>
        <path stroke="#1DBB3E" d="M25.846 44.192a3.807 3.807 0 1 1-7.615 0 3.807 3.807 0 0 1 7.615 0zm-3.923-13.654V33m0 22.154v2.461m13.539-13.538H33m-22.154 0H8.385m23.111-9.573l-1.741 1.741M14.09 51.91l-1.742 1.74m19.147 0l-1.741-1.74M14.09 36.245l-1.742-1.742"/>
        <path stroke="#56665A" d="M21.923 23.154c4.074 0 7.862 1.183 11.077 3.196V17c0-6.118-4.959-11.077-11.077-11.077S10.846 10.882 10.846 17v9.35a20.792 20.792 0 0 1 11.077-3.196z"/>
        <path stroke="#56665A" d="M21.923 23.154c6.422 0 12.163 2.9 16 7.455V17c0-8.837-7.163-16-16-16s-16 7.163-16 16v13.609c3.838-4.555 9.578-7.455 16-7.455z"/>
    </g>
</svg>
