<svg xmlns="http://www.w3.org/2000/svg" width="66" height="64" viewBox="0 0 66 64">
    <g fill="none" fill-rule="evenodd" stroke-linecap="round" stroke-linejoin="round" stroke-width="2">
        <path stroke="#56665A" d="M18.429 42.536l8.683 3.273m11.405 5.112l7.702 3.501m-27.18.5l8.444-4m11.405-5.113L46.876 42"/>
        <path stroke="#1DB93D" d="M65 48.448c0-5.56-7.06-10.377-17.377-12.758M33 62.793c17.674 0 32-6.422 32-14.345M18.35 35.697C8.046 38.08 1 42.893 1 48.448c0 7.923 14.327 14.345 32 14.345"/>
        <path stroke="#56665A" d="M49.552 17.552C49.552 30.793 33 47.345 33 47.345S16.448 30.793 16.448 17.552C16.448 8.41 23.86 1 33 1s16.552 7.41 16.552 16.552z"/>
        <path stroke="#56665A" d="M38.517 17.552a5.517 5.517 0 1 1-11.034 0 5.517 5.517 0 0 1 11.034 0z"/>
    </g>
</svg>
