<svg xmlns="http://www.w3.org/2000/svg" width="63" height="66" viewBox="0 0 63 66">
    <g fill="none" fill-rule="evenodd" stroke-linecap="round" stroke-linejoin="round" stroke-width="2">
        <path stroke="#566659" d="M36 20.2V5c0-1.704-2.02-4-4.07-4H5.07C2.952 1 1 3.296 1 5v55.2c0 1.704 1.952 4 4.07 4h26.86c2.049 0 4.069-2.296 4.07-4V53M19.482 5h-2.17M1.664 56.2h33.104M1.743 9H34.77M22.58 60.2h-9.1"/>
        <path stroke="#566659" d="M47.768 23.8h-5.297 1.497-3.98c-1.55 0-2.934 1.156-3.081 2.771-.16 1.75 1.075 3.2 2.675 3.356l2.24.03h-1.96c-.097 0-.187-.022-.28-.03l-1.489-.02c-1.55 0-2.934 1.185-3.082 2.8-.169 1.853 1.219 3.412 2.955 3.412h3.856-3.823c-1.55 0-2.934 1.186-3.082 2.802-.168 1.852 1.22 3.524 2.955 3.524h3.949-14.725c-1.55 0-2.935 1.262-3.082 2.877-.17 1.852 1.218 3.412 2.954 3.412h20.021c.56 0 1.34.34 1.737.753l1.02 1.067a1.108 1.108 0 0 1 0 1.508l-5.24 5.772c-1.428 1.572-1.471 4.026-.1 5.653l.845 1.002a.99.99 0 0 0 1.44 0l13.276-14.424C61.09 48.845 62 46.522 62 44.855V30.519c0-2.21-1.717-4.48-3.871-5.036 0 0-5.31-1.682-10.36-1.682z"/>
        <path stroke="#1DBB3E" d="M22.17 33.36l8.502 2.785m-24.272.03l8.524-2.782"/>
        <path stroke="#1DBB3E" stroke-dasharray="1 4" d="M18.8 41.603V52.09"/>
        <path stroke="#1DBB3E" d="M18.6 26.6c-2.389 0-4-1.79-4-4s1.611-4 4-4c1.589 0 3.2 1.79 3.2 4s-1.611 4-3.2 4zm0-12c-4.419 0-8 3.65-8 8 0 1.77.468 3.273 1.6 4.8l6.4 10.4L25 27.4c1.132-1.527 1.6-3.03 1.6-4.8 0-4.35-3.581-8-8-8z"/>
    </g>
</svg>
