<svg xmlns="http://www.w3.org/2000/svg" width="19" height="16" viewBox="0 0 19 16">
    <path fill="#FFF" fill-rule="evenodd" d="M13.57 13.275l-.316.516.916.457 3.15 1.575c.171.087.337.126.48.126.318 0 .535-.203.535-.565v-9.85l-4.763 7.74h-.001zm4.702-9.95c-.005-.004 0-.012-.004-.015L12.731.542a.587.587 0 0 0-.215-.05c-.018 0-.034-.012-.054-.012a.63.63 0 0 0-.536.292l-.275.447-.574.934-2.17 3.535 2.17 3.53.574.934.574.932.677 1.09 5.406-8.768c.022-.035.011-.07-.023-.092l-.013.01zm-7.196 8.085L8.229 6.78l-.338-.547-.338-.548-.287-.477v5.586l3.81 1.908.575.287.574.287-.574-.933-.574-.933-.001-.001zM.846.71L.677.627A.626.626 0 0 0 .402.556C.165.556 0 .739 0 1.046v11.663c0 .312.23.682.507.822l4.758 2.387a.69.69 0 0 0 .344.092c.295 0 .503-.23.503-.608V3.384a.058.058 0 0 0-.035-.054L.847.71H.846z"/>
</svg>
