<svg xmlns="http://www.w3.org/2000/svg" width="13" height="11" viewBox="0 0 13 11">
    <path fill="#1dbb3e" fill-rule="evenodd" d="M12.162.807c-.122-.3-.301-.457-.64-.693-.295-.207-.748-.113-.992.128-1.26 1.243-2.214 2.678-3.32 4.06-.538.673-1.141 1.692-1.708 2.513-.23-.19-.792-.696-1-.89-.697-.65-1.463-1.438-2.334-1.857-.72-.347-1.263-.032-1.72.567-.135.177-.292.471-.291.726-.184.196-.234.513.003.805 1.536 1.889 3.438 3.362 5.454 4.704.269.179.778.142.989-.128a79.818 79.818 0 0 0 5.984-8.874c.296-.51-.009-.936-.425-1.06z"/>
</svg>
