<svg xmlns="http://www.w3.org/2000/svg" width="22" height="22" viewBox="0 0 22 22">
    <path fill="#FFF" fill-rule="evenodd" d="M11 0C8.012 0 7.638.014 6.465.066c-1.171.055-1.969.24-2.67.512a5.373 5.373 0 0 0-1.948 1.269 5.344 5.344 0 0 0-1.27 1.948c-.271.701-.457 1.499-.51 2.67C.011 7.638 0 8.012 0 11c0 2.988.014 3.362.066 4.535.055 1.171.24 1.97.512 2.67.28.723.657 1.338 1.269 1.948.61.612 1.223.99 1.948 1.27.701.272 1.499.457 2.67.511C7.638 21.989 8.012 22 11 22c2.988 0 3.362-.014 4.535-.066 1.171-.055 1.97-.24 2.67-.512a5.373 5.373 0 0 0 1.948-1.269c.612-.61.99-1.223 1.27-1.948.272-.701.457-1.499.511-2.67.055-1.173.066-1.547.066-4.535 0-2.988-.014-3.362-.066-4.535-.055-1.171-.24-1.97-.512-2.67a5.373 5.373 0 0 0-1.269-1.948 5.344 5.344 0 0 0-1.948-1.27c-.701-.272-1.499-.457-2.67-.511C14.362.011 13.988 0 11 0zm.022 2.029c2.924 0 3.271.013 4.425.066 1.068.049 1.647.227 2.033.378.512.198.876.435 1.26.819.383.383.62.748.818 1.26.15.386.328.966.378 2.034.052 1.156.064 1.503.064 4.43 0 2.925-.014 3.273-.068 4.428-.055 1.068-.233 1.648-.384 2.034a3.48 3.48 0 0 1-.821 1.26c-.383.384-.753.62-1.26.82-.383.15-.971.328-2.039.378-1.163.052-1.506.064-4.435.064-2.93 0-3.271-.014-4.435-.068-1.068-.055-1.656-.233-2.04-.384a3.408 3.408 0 0 1-1.259-.822 3.353 3.353 0 0 1-.821-1.26c-.15-.384-.328-.973-.383-2.041C2.014 14.274 2 13.918 2 11s.014-3.274.055-4.438c.055-1.069.232-1.658.383-2.041.192-.521.438-.877.821-1.26.384-.384.74-.63 1.26-.823.383-.15.958-.328 2.025-.383C7.708 2.014 8.05 2 10.98 2l.043.029zM10.5 5a5.5 5.5 0 1 0 0 11 5.5 5.5 0 0 0 0-11zm0 9a3.5 3.5 0 1 1 0-7 3.5 3.5 0 0 1 0 7zM19 5.5a1.5 1.5 0 1 1-3 0 1.5 1.5 0 0 1 3 0z"/>
</svg>
