<svg xmlns="http://www.w3.org/2000/svg" viewBox="0 0 19 20">
    <path d="M5.5 2C2.46 2 0 4.348 0 7.25 0 11.188 5.5 17 5.5 17S11 11.187 11 7.25C11 4.348 8.54 2 5.5 2zm0 7.125c-1.012 0-1.833-.84-1.833-1.875 0-1.035.821-1.875 1.833-1.875s1.833.84 1.833 1.875c0 1.035-.821 1.875-1.833 1.875zM16 0c1.659 0 3 1.252 3 2.8C19 4.9 16 8 16 8s-3-3.1-3-5.2C13 1.252 14.341 0 16 0zM6 19l.994-.156 4.375-.688c.55-.086.914-.6.815-1.144l-.55-3.024a1.048 1.048 0 0 1 .807-1.205l2.573-.566c.544-.12.986-.66.986-1.216V9.999" fill="none"/>
</svg>
