<svg xmlns="http://www.w3.org/2000/svg" width="80" height="77" viewBox="0 0 80 77">
    <g fill="none" fill-rule="evenodd" transform="translate(0 1)">
        <path stroke="#56665A" stroke-linecap="round" stroke-linejoin="round" stroke-width="2" d="M1 5.286A7.899 7.899 0 0 1 3.083 5a7.887 7.887 0 0 1 7.383 5.112 4.205 4.205 0 0 1 6.823 3.288c0 .121-.008.24-.018.36 2.46.86 4.227 3.191 4.227 5.94 0 3.48-2.826 6.3-6.313 6.3H1"/>
        <path stroke="#56665A" stroke-width="2" d="M78.61 3.788a6.005 6.005 0 0 0-11.204.107A3.204 3.204 0 0 0 62.207 6.4c0 .093.006.183.014.274A4.799 4.799 0 0 0 59 11.2c0 2.651 2.154 4.8 4.81 4.8h13.63c.406 0 .794-.065 1.17-.16"/>
        <path fill="#1DBB3E" d="M43 76h-4c-.553 0-1-.522-1-1.167v-4.666c0-.645.447-1.167 1-1.167h4c.553 0 1 .522 1 1.167v4.666c0 .645-.447 1.167-1 1.167zm-3.078-3H42v-2h-2.078v2z"/>
        <path fill="#56665A" d="M78.667 76H1.333C.597 76 0 75.553 0 75c0-.553.597-1 1.333-1h77.334c.737 0 1.333.447 1.333 1 0 .553-.596 1-1.333 1"/>
        <path fill="#1DBB3E" d="M49 25H33c-2.206 0-4-1.794-4-4V5c0-2.206 1.794-4 4-4h16c2.206 0 4 1.794 4 4v16c0 2.206-1.794 4-4 4zM32.429 3A1.43 1.43 0 0 0 31 4.429V21.57c0 .789.64 1.429 1.429 1.429H49.57A1.43 1.43 0 0 0 51 21.571V4.43A1.43 1.43 0 0 0 49.571 3H32.43z"/>
        <path fill="#1DBB3E" d="M41.5 15h-3.214A1.285 1.285 0 0 1 37 13.714V7.286C37 6.575 37.575 6 38.286 6H41.5c2.48 0 4.5 2.019 4.5 4.5S43.981 15 41.5 15zM39 13h2.5c1.379 0 2.5-1.121 2.5-2.5S42.879 8 41.5 8H39v5zm1 56.694V24.306c0-.722.447-1.306 1-1.306.553 0 1 .584 1 1.306v45.388c0 .722-.447.306-1 .306-.553 0-1 .416-1-.306z"/>
        <rect width="2" height="12" x="37" y="7" fill="#1DBB3E" rx="1"/>
        <g stroke="#56665A" stroke-linecap="round" stroke-linejoin="round" stroke-width="2">
            <path d="M1 67h12m14.724-1.655h.808a7.468 7.468 0 0 0 1.228-14.833l-6.622-1.104a13.789 13.789 0 0 1-6.563-3.01l-9.843-8.2C4.254 36.13 4.228 35 1 35"/>
            <path d="M8.5 40H3.01A2 2 0 0 0 1 41.998v4.004C1 47.105 1.892 48 3.007 48H18.5m11.983 9.069h5.38m-13.656 9.655a1.38 1.38 0 1 1-2.76 0 1.38 1.38 0 0 1 2.76 0z"/>
            <path d="M28 67a7 7 0 1 1-14.002-.002A7 7 0 0 1 28 67z"/>
        </g>
        <g stroke="#56665A" stroke-linecap="round" stroke-linejoin="round" stroke-width="2">
            <path d="M79 67H69m-14.724-1.655h-.808C49.47 65.345 46 64 46 59.877a7.466 7.466 0 0 1 6.24-7.365l6.622-1.104a13.789 13.789 0 0 0 6.563-3.01l7.843-7.2C75.746 39.13 75.772 38 79 38"/>
            <path d="M71.5 43h5.49A2 2 0 0 1 79 44.998v4.004A1.996 1.996 0 0 1 77.003 51H60.5m-7.983 8.069h-5.38m12.656 7.655a1.38 1.38 0 1 0 2.76 0 1.38 1.38 0 0 0-2.76 0z"/>
            <path d="M54 67a7 7 0 1 0 14.002-.002A7 7 0 0 0 54 67z"/>
        </g>
    </g>
</svg>
