<svg xmlns="http://www.w3.org/2000/svg" width="80" height="81" viewBox="0 0 80 81">
    <g fill="none" fill-rule="evenodd" stroke-width="2" transform="translate(0 1)">
        <path stroke="#566659" stroke-linecap="round" stroke-linejoin="round" d="M19 54v20c0 2.13 2.398 5 5 5h33c2.517 0 4.999-2.87 5-5V54m0-29V5c0-2.13-2.482-5-5-5H24c-2.602 0-5 2.87-5 5v20.005M42.103 5h-2.714M19.831 69h41.38M19.93 10h41.28M45.975 74H34.6"/>
        <rect width="78" height="29" x="1" y="25" stroke="#56665A" rx="4"/>
        <path stroke="#1DBB3E" stroke-linecap="round" stroke-linejoin="round" d="M25 39.5a8.5 8.5 0 1 1-17 0 8.5 8.5 0 0 1 17 0z"/>
        <path stroke="#1DBB3E" stroke-linecap="round" stroke-linejoin="round" d="M13 40.278L15.2 43l3.8-7m29 3.5a8.5 8.5 0 1 1-17 0 8.5 8.5 0 0 1 17 0z"/>
        <path stroke="#1DBB3E" stroke-linecap="round" stroke-linejoin="round" d="M36 40.278L38.2 43l3.8-7m30 3.5a8.5 8.5 0 1 1-17 0 8.5 8.5 0 0 1 17 0zM59 39h9m-4 4l4-4m-4-4l4 4"/>
    </g>
</svg>
