<svg xmlns="http://www.w3.org/2000/svg" width="80" height="82" viewBox="0 0 80 82">
    <g fill="none" fill-rule="evenodd" stroke-linecap="round" stroke-linejoin="round" stroke-width="2">
        <path stroke="#566659" d="M44 25V6c0-2.13-2.482-5-5-5H6C3.398 1 1 3.87 1 6v69c0 2.13 2.398 5 5 5h33c2.517 0 4.999-2.87 5-5v-9M24.103 6h-2.714M1.831 70h41.38M1.93 11h41.28M27.975 75H16.6"/>
        <path stroke="#566659" d="M60.649 30h-6.83 1.93-5.131c-2 0-3.785 1.438-3.974 3.447a3.808 3.808 0 0 0 3.45 4.175l2.887.037h-2.528c-.124 0-.24-.027-.36-.037l-1.92-.026c-1.999 0-3.784 1.475-3.974 3.485-.218 2.304 1.571 4.244 3.81 4.244h4.972-4.929c-1.999 0-3.784 1.475-3.974 3.484-.216 2.304 1.572 4.384 3.81 4.384h5.092-18.988c-1.999 0-3.784 1.57-3.974 3.579-.218 2.304 1.57 4.244 3.81 4.244h25.816c.722 0 1.729.422 2.24.937L63.2 63.28c.509.516.509 1.36 0 1.876l-6.759 7.18a5.246 5.246 0 0 0-.128 7.03l1.09 1.248c.51.515 1.346.515 1.856 0l17.666-18.515C78.07 60.9 79 58.572 79 56.931V37.383c0-2.21-1.73-4.473-3.864-5.017 0 0-7.975-2.366-14.487-2.366z"/>
        <path stroke="#1DBB3E" d="M27.463 41.45l10.627 3.48m-30.34.038l10.655-3.477"/>
        <path stroke="#1DBB3E" stroke-dasharray="1 4" d="M22 51.753v13.11"/>
        <path stroke="#1DBB3E" d="M23 33c-2.986 0-5-2.238-5-5s2.014-5 5-5c1.986 0 4 2.238 4 5s-2.014 5-4 5zm0-15c-5.523 0-10 4.561-10 10 0 2.211.586 4.09 2 6l8 13 8-13c1.414-1.91 2-3.789 2-6 0-5.439-4.477-10-10-10z"/>
    </g>
</svg>
