<svg xmlns="http://www.w3.org/2000/svg" width="80" height="46" viewBox="0 0 80 46">
    <g fill="none" fill-rule="evenodd" stroke-linecap="round" stroke-linejoin="round" stroke-width="2">
        <path stroke="#56665A" d="M52.598 39.842c-.268 1.157-1.23 2.072-2.023 2.529-1.901 1.096-4.425.78-5.592-1.109L41 34m4 8.107c-.752 1.503-1.204 1.652-1.918 2.085-1.854 1.126-4.557 1.24-5.691-.725L34 37m24.093-2.743c.745 1.585 1.168 4.705-.723 6.007-1.616 1.11-3.963.96-4.772-.422L48 30.79M14.333 36H5.798a2.677 2.677 0 0 1-2.623-2.225C1.231 22.715.985 13.178 1.001 8.708 1.006 7.205 2.199 6 3.668 6h10.665C15.805 6 17 7.222 17 8.727v24.546C17 34.778 15.805 36 14.333 36zM37 43.259c-.388.445-.743.667-1.578 1.128-2.018 1.116-5.547.928-7.576-2.432C25.08 37.374 22.436 32 22.436 32H18"/>
        <path stroke="#1DBB3E" d="M65.667 36C64.195 36 63 34.778 63 33.273V8.727C63 7.222 64.195 6 65.667 6h10.665c1.469 0 2.662 1.205 2.667 2.708.015 4.47-.23 14.006-2.174 25.067A2.677 2.677 0 0 1 74.202 36h-8.535zM63 9.25V34h-5.062l-10.98-20.532a2.88 2.88 0 0 0-4.383-.775l-5.459 4.68a5.504 5.504 0 0 1-6.887.225l-.551-.413a1.695 1.695 0 0 1-.296-2.428L38.03 4.186A8.685 8.685 0 0 1 44.749 1h4.591c1.493 0 2.953.441 4.195 1.27L63 9.25z"/>
        <path stroke="#56665A" d="M17 9h7.948l3.034-1.873A7.404 7.404 0 0 1 31.883 6H36"/>
    </g>
</svg>
