<svg xmlns="http://www.w3.org/2000/svg" width="82" height="79" viewBox="0 0 82 79">
    <g fill="none" fill-rule="evenodd" stroke-linecap="round" stroke-linejoin="round" stroke-width="2">
        <path stroke="#56665A" d="M81 31c-12.467-1.93-26.014-3-40.197-3-6.763 0-12.376.25-18.803.715M8 30c-2.365.182-4.707.376-7 .595M81 8C69.717 3.598 55.917 1 41 1 26.083 1 12.283 3.598 1 8m23 70c11.436-25.92 23.337-43.8 31-49"/>
        <path stroke="#56665A" stroke-dasharray="2 9" d="M41 77c7.176-20.203 15.756-36.112 25.045-47.716"/>
        <path stroke="#56665A" d="M56 78c6.25-24.963 14.17-37 21-47m-25-3C48.268 15.002 44.025 7.308 36.457 1.14"/>
        <path stroke="#56665A" stroke-dasharray="2 6" d="M43 28c-.445-8.387-5.28-21.701-13-27"/>
        <path stroke="#56665A" d="M31.554 28c1.648-9.325-1.197-19.58-7.396-25.81"/>
        <path stroke="#1DBB3E" d="M15 48v14m9-22.182C24 44.336 20.193 48 15.5 48S7 44.336 7 39.818C7 35.3 10.807 18 15.5 18S24 35.3 24 39.818zM11 40c.181 1.194.927 1.775 2 2m3-13.053c-.849-.86-1.872-1.065-3-.89"/>
    </g>
</svg>
