<?xml version="1.0" encoding="UTF-8" standalone="no"?>
<svg
   xmlns:dc="http://purl.org/dc/elements/1.1/"
   xmlns:cc="http://creativecommons.org/ns#"
   xmlns:rdf="http://www.w3.org/1999/02/22-rdf-syntax-ns#"
   xmlns:svg="http://www.w3.org/2000/svg"
   xmlns="http://www.w3.org/2000/svg"
   xmlns:sodipodi="http://sodipodi.sourceforge.net/DTD/sodipodi-0.dtd"
   xmlns:inkscape="http://www.inkscape.org/namespaces/inkscape"
   viewBox="0 0 222 34"
   version="1.1"
   id="svg6"
   sodipodi:docname="logo.svg"
   inkscape:version="0.92.3 (2405546, 2018-03-11)">
  <metadata
     id="metadata12">
    <rdf:RDF>
      <cc:Work
         rdf:about="">
        <dc:format>image/svg+xml</dc:format>
        <dc:type
           rdf:resource="http://purl.org/dc/dcmitype/StillImage" />
      </cc:Work>
    </rdf:RDF>
  </metadata>
  <defs
     id="defs10" />
  <sodipodi:namedview
     pagecolor="#ffffff"
     bordercolor="#666666"
     borderopacity="1"
     objecttolerance="10"
     gridtolerance="10"
     guidetolerance="10"
     inkscape:pageopacity="0"
     inkscape:pageshadow="2"
     inkscape:window-width="1478"
     inkscape:window-height="480"
     id="namedview8"
     showgrid="false"
     inkscape:zoom="4.2553813"
     inkscape:cx="0.98418696"
     inkscape:cy="10.58533"
     inkscape:window-x="545"
     inkscape:window-y="347"
     inkscape:window-maximized="0"
     inkscape:current-layer="svg6" />
  <path
     d="M 11.803,13.834 1.405,23.856 C 0.468,21.796 0,19.548 0,17.112 0,7.84 7.587,0.252 16.861,0.252 c 5.643217,-0.014096 10.918456,2.7990391 14.051,7.493 l -11.24,8.993 0.374,-4.496 -9.46,7.306 z m 20.795,-2.81 c 0.75,1.873 1.124,3.934 1.124,6.088 0,9.274 -7.493,16.86 -16.86,16.86 -6.682897,0.016 -12.7452386,-3.91444 -15.458,-10.022 l 5.62,-2.904 -0.28,5.714 9.367,-7.306 -0.188,4.59 16.674,-13.02 z"
     id="path2"
     inkscape:connector-curvature="0"
     style="fill:#1dbb3e"
     sodipodi:nodetypes="ccscccccccscccccccc" />
  <path
     fill="#161616"
     d="M69.319 10.588l-1.166-4.09-1.277 4.09-6.034 18.99h-3.943L49.07 2.63h3.443l5.737 20.488.704 2.961.814-2.683L66.58 2.63h3.35l6.645 20.562.851 2.869.667-2.628L83.848 2.63h3.332l-7.83 26.948h-3.923l-6.108-18.99zm27.652-.462c.777 0 1.486.07 2.128.212a8.251 8.251 0 0 1 1.777.602c.543.26 1.043.58 1.5.962.456.383.881.815 1.276 1.296l.111-2.61h3.017l-.074 4.683v14.306h-3.054l.037-2.665c-.296.395-.669.78-1.12 1.157-.45.376-.96.706-1.526.99a9.239 9.239 0 0 1-1.879.685 8.788 8.788 0 0 1-2.156.259c-1.062 0-2.024-.139-2.888-.417a8.27 8.27 0 0 1-2.313-1.147 8.302 8.302 0 0 1-1.768-1.712 9.759 9.759 0 0 1-1.23-2.11 12.278 12.278 0 0 1-.962-4.738 11.625 11.625 0 0 1 .564-3.59 9.27 9.27 0 0 1 1.702-3.128c.759-.913 1.71-1.647 2.85-2.203 1.142-.555 2.478-.832 4.008-.832zm.351 17.434a5.72 5.72 0 0 0 2.434-.527 5.749 5.749 0 0 0 2-1.555c.573-.685 1.03-1.536 1.369-2.554.34-1.018.515-2.193.527-3.526 0-1-.15-1.912-.453-2.74a6.371 6.371 0 0 0-1.286-2.146 5.701 5.701 0 0 0-2.027-1.407c-.796-.333-1.688-.5-2.675-.5-.752 0-1.431.102-2.036.306a5.556 5.556 0 0 0-1.61.842 5.913 5.913 0 0 0-1.222 1.259 7.39 7.39 0 0 0-.85 1.545 8.496 8.496 0 0 0-.491 1.712 10.054 10.054 0 0 0-.158 1.758c0 .568.04 1.151.12 1.75.08.598.213 1.174.399 1.73a6.83 6.83 0 0 0 .758 1.573c.321.494.72.922 1.194 1.286a5.658 5.658 0 0 0 1.703.87c.66.216 1.428.324 2.304.324zm17.972-22.172h-2.832v-2.87h2.832v2.87zm-2.98 5.2h3.054v18.99h-3.054v-18.99zm6.478 0h3.369l5.2 12.77c.087.21.192.491.316.843.123.351.24.706.351 1.064.136.407.272.84.407 1.296.124-.445.253-.87.39-1.278.11-.345.221-.696.332-1.054.111-.358.216-.648.315-.87l5.108-12.77h3.276l-8.014 18.989h-3.11l-7.94-18.99zm38.424 16.861a9.805 9.805 0 0 1-3.405 1.943c-1.246.407-2.66.611-4.239.611-1.493 0-2.825-.244-3.997-.731-1.173-.487-2.163-1.166-2.971-2.036-.809-.87-1.426-1.91-1.851-3.119-.426-1.209-.639-2.535-.639-3.979 0-1.37.21-2.658.63-3.868a9.464 9.464 0 0 1 1.832-3.183 8.674 8.674 0 0 1 2.934-2.166c1.153-.53 2.47-.795 3.951-.795 1.456 0 2.721.237 3.795.712 1.073.475 1.955 1.13 2.646 1.962.691.833 1.206 1.823 1.546 2.97.339 1.148.509 2.394.509 3.74a14.45 14.45 0 0 1-.037.961h-14.548l.055.833a8.78 8.78 0 0 0 .564 2.536 6.048 6.048 0 0 0 1.248 1.98c.53.555 1.173.984 1.93 1.287.759.302 1.624.453 2.598.453 1.306 0 2.5-.228 3.585-.685a9.235 9.235 0 0 0 2.92-1.961l.944 2.535zm-2.461-9.143l-.019-.259a7.9 7.9 0 0 0-.47-2.203 5.26 5.26 0 0 0-1.045-1.72 4.564 4.564 0 0 0-1.617-1.12c-.635-.266-1.352-.398-2.152-.398-.863 0-1.64.15-2.329.453a5.52 5.52 0 0 0-1.783 1.23 6.274 6.274 0 0 0-1.21 1.815 8.24 8.24 0 0 0-.629 2.202h11.254z"
     id="path4" />
</svg>
