<svg xmlns="http://www.w3.org/2000/svg" viewBox="0 0 222 34">
    <path fill="#1dbb3e" d="M11.803 13.834L1.405 23.856C.468 21.796 0 19.548 0 17.112 0 7.84 7.587.252 16.861.252a16.842 16.842 0 0 1 14.051 7.493l-11.24 8.993.374-4.496-9.46 7.306 1.217-5.714zm20.795-2.81c.75 1.873 1.124 3.934 1.124 6.088 0 9.274-7.493 16.86-16.86 16.86A16.87 16.87 0 0 1 1.404 23.95l5.62-2.904-.28 5.714 9.367-7.306-.188 4.59 16.674-13.02zm149.124-4.026c-1.888-1.419-4.09-2.129-6.608-2.129-1.135 0-2.172.152-3.11.454a9.057 9.057 0 0 0-2.526 1.26 9 9 0 0 0-1.943 1.898 11.302 11.302 0 0 0-1.37 2.371 12.997 12.997 0 0 0-.814 2.696 15.245 15.245 0 0 0-.269 2.843c0 1.457.192 2.843.574 4.158.382 1.315.969 2.47 1.759 3.464.79.994 1.788 1.785 2.998 2.371 1.21.586 2.64.88 4.294.88 1.518 0 2.946-.22 4.285-.657a9.978 9.978 0 0 0 3.526-1.99l1.073 2.61c-1.147.925-2.505 1.62-4.072 2.082-1.567.463-3.331.694-5.293.694-2.036 0-3.832-.358-5.386-1.073-1.555-.716-2.863-1.694-3.924-2.934-1.062-1.24-1.863-2.684-2.406-4.33-.543-1.648-.815-3.409-.815-5.285 0-1.27.133-2.504.398-3.701a15.27 15.27 0 0 1 1.167-3.378 13.615 13.615 0 0 1 1.896-2.906 11.897 11.897 0 0 1 2.582-2.267c.969-.63 2.04-1.12 3.212-1.471 1.172-.352 2.443-.528 3.813-.528 1.678 0 3.177.224 4.497.671 1.32.448 2.542 1.168 3.665 2.16l-1.203 2.037zm14.64 3.128c.778 0 1.487.07 2.129.212a8.254 8.254 0 0 1 1.776.602c.543.26 1.043.58 1.5.962a9.8 9.8 0 0 1 1.277 1.296l.11-2.61h3.018l-.074 4.683v14.306h-3.054l.037-2.665c-.296.395-.67.78-1.12 1.157-.45.376-.96.706-1.527.99a9.244 9.244 0 0 1-1.879.685 8.788 8.788 0 0 1-2.156.259c-1.061 0-2.024-.139-2.887-.417a8.267 8.267 0 0 1-2.314-1.147 8.302 8.302 0 0 1-1.767-1.712 9.759 9.759 0 0 1-1.231-2.11 12.278 12.278 0 0 1-.962-4.738c0-1.221.187-2.418.564-3.59a9.278 9.278 0 0 1 1.702-3.128c.76-.913 1.71-1.647 2.85-2.203 1.142-.555 2.478-.832 4.008-.832zm.352 17.434a5.72 5.72 0 0 0 2.434-.527 5.749 5.749 0 0 0 1.998-1.555c.574-.685 1.03-1.536 1.37-2.554.34-1.018.515-2.193.528-3.526 0-1-.152-1.912-.454-2.74a6.375 6.375 0 0 0-1.286-2.146 5.701 5.701 0 0 0-2.027-1.407c-.796-.333-1.687-.5-2.674-.5-.753 0-1.432.102-2.036.306a5.55 5.55 0 0 0-1.61.842c-.47.358-.877.777-1.222 1.259a7.29 7.29 0 0 0-.851 1.545 8.496 8.496 0 0 0-.491 1.712 10.079 10.079 0 0 0-.157 1.758c0 .568.04 1.151.12 1.75a9.42 9.42 0 0 0 .398 1.73c.185.555.438 1.08.759 1.573a5.1 5.1 0 0 0 1.194 1.286 5.66 5.66 0 0 0 1.702.87c.66.216 1.428.324 2.305.324zm18.046 2.017h-3.054V15.16c0-.778-.013-1.555-.037-2.332l-.074-2.24h3.054l.11 2.869c.519-1.049 1.222-1.863 2.11-2.443a5.304 5.304 0 0 1 2.962-.87c.715 0 1.382.074 2 .222l.036 2.869a3.75 3.75 0 0 0-.944-.324c-.37-.08-.765-.12-1.184-.12a4.73 4.73 0 0 0-2.036.435 4.353 4.353 0 0 0-1.574 1.249c-.432.543-.768 1.203-1.008 1.98-.241.778-.361 1.647-.361 2.61v10.512z"/>
    <path fill="#161616" d="M69.319 10.588l-1.166-4.09-1.277 4.09-6.034 18.99h-3.943L49.07 2.63h3.443l5.737 20.488.704 2.961.814-2.683L66.58 2.63h3.35l6.645 20.562.851 2.869.667-2.628L83.848 2.63h3.332l-7.83 26.948h-3.923l-6.108-18.99zm27.652-.462c.777 0 1.486.07 2.128.212a8.251 8.251 0 0 1 1.777.602c.543.26 1.043.58 1.5.962.456.383.881.815 1.276 1.296l.111-2.61h3.017l-.074 4.683v14.306h-3.054l.037-2.665c-.296.395-.669.78-1.12 1.157-.45.376-.96.706-1.526.99a9.239 9.239 0 0 1-1.879.685 8.788 8.788 0 0 1-2.156.259c-1.062 0-2.024-.139-2.888-.417a8.27 8.27 0 0 1-2.313-1.147 8.302 8.302 0 0 1-1.768-1.712 9.759 9.759 0 0 1-1.23-2.11 12.278 12.278 0 0 1-.962-4.738 11.625 11.625 0 0 1 .564-3.59 9.27 9.27 0 0 1 1.702-3.128c.759-.913 1.71-1.647 2.85-2.203 1.142-.555 2.478-.832 4.008-.832zm.351 17.434a5.72 5.72 0 0 0 2.434-.527 5.749 5.749 0 0 0 2-1.555c.573-.685 1.03-1.536 1.369-2.554.34-1.018.515-2.193.527-3.526 0-1-.15-1.912-.453-2.74a6.371 6.371 0 0 0-1.286-2.146 5.701 5.701 0 0 0-2.027-1.407c-.796-.333-1.688-.5-2.675-.5-.752 0-1.431.102-2.036.306a5.556 5.556 0 0 0-1.61.842 5.913 5.913 0 0 0-1.222 1.259 7.39 7.39 0 0 0-.85 1.545 8.496 8.496 0 0 0-.491 1.712 10.054 10.054 0 0 0-.158 1.758c0 .568.04 1.151.12 1.75.08.598.213 1.174.399 1.73a6.83 6.83 0 0 0 .758 1.573c.321.494.72.922 1.194 1.286a5.658 5.658 0 0 0 1.703.87c.66.216 1.428.324 2.304.324zm17.972-22.172h-2.832v-2.87h2.832v2.87zm-2.98 5.2h3.054v18.99h-3.054v-18.99zm6.478 0h3.369l5.2 12.77c.087.21.192.491.316.843.123.351.24.706.351 1.064.136.407.272.84.407 1.296.124-.445.253-.87.39-1.278.11-.345.221-.696.332-1.054.111-.358.216-.648.315-.87l5.108-12.77h3.276l-8.014 18.989h-3.11l-7.94-18.99zm38.424 16.861a9.805 9.805 0 0 1-3.405 1.943c-1.246.407-2.66.611-4.239.611-1.493 0-2.825-.244-3.997-.731-1.173-.487-2.163-1.166-2.971-2.036-.809-.87-1.426-1.91-1.851-3.119-.426-1.209-.639-2.535-.639-3.979 0-1.37.21-2.658.63-3.868a9.464 9.464 0 0 1 1.832-3.183 8.674 8.674 0 0 1 2.934-2.166c1.153-.53 2.47-.795 3.951-.795 1.456 0 2.721.237 3.795.712 1.073.475 1.955 1.13 2.646 1.962.691.833 1.206 1.823 1.546 2.97.339 1.148.509 2.394.509 3.74a14.45 14.45 0 0 1-.037.961h-14.548l.055.833a8.78 8.78 0 0 0 .564 2.536 6.048 6.048 0 0 0 1.248 1.98c.53.555 1.173.984 1.93 1.287.759.302 1.624.453 2.598.453 1.306 0 2.5-.228 3.585-.685a9.235 9.235 0 0 0 2.92-1.961l.944 2.535zm-2.461-9.143l-.019-.259a7.9 7.9 0 0 0-.47-2.203 5.26 5.26 0 0 0-1.045-1.72 4.564 4.564 0 0 0-1.617-1.12c-.635-.266-1.352-.398-2.152-.398-.863 0-1.64.15-2.329.453a5.52 5.52 0 0 0-1.783 1.23 6.274 6.274 0 0 0-1.21 1.815 8.24 8.24 0 0 0-.629 2.202h11.254z"/>
</svg>
