<svg xmlns="http://www.w3.org/2000/svg" width="47" height="48" viewBox="0 0 47 48">
    <g fill="none" fill-rule="evenodd" stroke="#56665A" stroke-linecap="round" stroke-linejoin="round" stroke-width="2">
        <path d="M40.95 34.426L32.971 31c-2.57 2.938-5.903 4.666-9.501 4.666-3.6 0-6.934-1.728-9.503-4.666L5.99 34.426c-1.803.774-3.117 2.443-3.499 4.445L1 47h45l-1.552-8.13c-.381-2-1.696-3.67-3.499-4.444zM18 19h2m8 0h2"/>
        <path d="M12.61 11c-.16.738-.64 1.303-.64 2.088 0 .342.049.67.085 1.003-.03-.004-.057-.018-.085-.018-1.09 0-1.97 1.764-1.97 3.94 0 2.177.88 3.94 1.97 3.94.201 0 .394-.079.578-.192C13.995 27.597 18.428 32 23.197 32c4.767 0 8.807-4.206 10.255-10.042.184.113.375.192.578.192 1.088 0 1.97-1.763 1.97-3.94 0-2.176-.882-3.94-1.97-3.94-.03 0-.056.014-.085.018.035-.333.085-.66.085-1.003 0-.785-.088-1.547-.246-2.285"/>
        <path d="M35 11c-.896 1.52-4.196 4-10.795 4-6.6 0-10.308-2.48-11.205-4M23.5 1C18.66 1 13.102 6.833 10 6.833v2.5C10 10.483 11.286 11 12.382 11h22.236C35.714 11 37 10.067 37 8.917V6.833C33.898 6.833 28.34 1 23.5 1z"/>
        <path d="M23 4v1.25c0 .69.31.75 1 .75s1-.06 1-.75V4h-2zm10 35h3v1.5L34.5 42 33 40.5zm-13-3v11m8-11v11"/>
    </g>
</svg>
