<svg xmlns="http://www.w3.org/2000/svg" width="50" height="50" viewBox="0 0 50 50">
    <g fill="none" fill-rule="evenodd" stroke="#56665A" stroke-linecap="round" stroke-linejoin="round" stroke-width="2">
        <path d="M1.8 45h6.4s3.547-12.411 4-17.6c-1.597-1.514-10.4-1.6-10.4-1.6V45z"/>
        <path d="M34.078 39.194l7.728-1.932a5.622 5.622 0 0 1 6.394 2.941l-11.096 5.043c-8.405 3.447-9.109 3.53-13.112 2.018L8.86 42.219"/>
        <path d="M11.887 30.115l18.157 4.036c2.694.673 4.035 1.947 4.035 4.724v.319l-2.715.678a6.067 6.067 0 0 1-2.655.064l-8.752-1.752m26.378-.384c.22-.995.334-2.03.334-3.091 0-5.543-12.068-20.109-12.068-20.109h-8s-9.082 10.536-11.2 16.042M22.6 14h16"/>
        <path d="M26.6 14.6S15.394 6.126 17.8 3.4c1.493-1.691 8 3.2 8 3.2s3.373-4.8 4.8-4.8c1.427 0 4.8 4.8 4.8 4.8s6.507-4.891 8-3.2c2.406 2.726-8.8 11.2-8.8 11.2h-8zm6.384 20c.507-.502.816-1.165.816-1.89 0-2.312-2.639-2.7-3.197-2.836-.559-.136-3.203-.525-3.203-2.837 0-1.568 1.435-2.837 3.203-2.837 1.702 0 3.091 1.174 3.197 2.654M30 22.6v11.2"/>
    </g>
</svg>
