<svg xmlns="http://www.w3.org/2000/svg" width="66" height="38" viewBox="0 0 66 38">
    <g fill="none" fill-rule="evenodd" stroke="#56665A" stroke-linecap="round" stroke-linejoin="round" stroke-width="2">
        <path d="M35 4.889V2.11C35 1.56 34.38 1 33.759 1H18.24C17.621 1 17 1.56 17 2.111V4.89c0 .55.62 1.11 1.241 1.11H33.76C34.379 6 35 5.44 35 4.889zM18.655 30.103h28.69m11.034 0h.647c3.3 0 5.974-2.655 5.974-5.931 0-2.9-2.11-5.374-4.992-5.85l-5.298-.877a11.067 11.067 0 0 1-5.25-2.39L41.586 8.54A11.08 11.08 0 0 0 34.522 6H19.056a9.58 9.58 0 0 0-8.564 5.256l-2.871 5.7H6.31C3.378 16.956 1 19.317 1 22.23v2.602c0 2.911 2.378 5.272 5.31 5.272h1.31"/>
        <path d="M43.814 10.241H20.29a6.218 6.218 0 0 0-5.561 3.438l-.59 1.177a1.386 1.386 0 0 0 1.241 2.006h37.49m-29.802 0v-6.62m8.828 6.62v-6.62m28.69 13.24h4.192m-30.676-2.206h2.207m-17.655 9.93a5.518 5.518 0 1 1-11.036 0 5.518 5.518 0 0 1 11.036 0z"/>
        <path d="M14.241 31.207a1.104 1.104 0 1 1-2.207 0 1.104 1.104 0 0 1 2.207 0zm39.725 0a1.104 1.104 0 1 1-2.208 0 1.104 1.104 0 0 1 2.208 0z"/>
        <path d="M58.38 31.207a5.518 5.518 0 1 1-11.036-.001 5.518 5.518 0 0 1 11.035 0z"/>
    </g>
</svg>
