<svg xmlns="http://www.w3.org/2000/svg" width="82" height="58" viewBox="0 0 82 58">
    <g fill="none" fill-rule="evenodd" stroke="#FFF" stroke-linecap="round" stroke-linejoin="round" stroke-width="2">
        <path d="M78.037 57H3.963A2.956 2.956 0 0 1 1 54.053V3.947A2.956 2.956 0 0 1 3.963 1h74.074A2.956 2.956 0 0 1 81 3.947v50.106A2.956 2.956 0 0 1 78.037 57z"/>
        <path d="M17.5 19h-6a1.5 1.5 0 0 1-1.5-1.5v-6a1.5 1.5 0 0 1 1.5-1.5h6a1.5 1.5 0 0 1 1.5 1.5v6a1.5 1.5 0 0 1-1.5 1.5zM66 36c-1.803 0-3.4.812-4.5 2.069C60.4 36.81 58.803 36 57 36a6 6 0 0 0 0 12c1.803 0 3.4-.812 4.5-2.069C62.6 47.19 64.197 48 66 48a6 6 0 0 0 0-12zM10 48h33m-33-6h9m-8-15v-1m6 1v-1m6 1v-1m18 1v-1m18 1v-1m-30 1v-1m42 1v-1m-36 1v-1m12 1v-1m6 1v-1m12 1v-1M25 42h9"/>
    </g>
</svg>
