<svg xmlns="http://www.w3.org/2000/svg" width="73" height="80" viewBox="0 0 73 80">
    <g fill="none" fill-rule="evenodd" stroke-linecap="round" stroke-linejoin="round" stroke-width="2">
        <path stroke="#1DBB3E" d="M72 68.935V3.516A2.509 2.509 0 0 0 69.5 1h-5C63.12 1 62 2.127 62 3.516v65.42L67 79l5-10.065zM62 8h10M62 69h10m-5-56v12"/>
        <path stroke="#56665A" d="M5 79h45a4 4 0 0 0 4-4V5a4 4 0 0 0-4-4H5a4 4 0 0 0-4 4v70a4 4 0 0 0 4 4zm5-69h13m-13 5h35m-35 5h35m-35 5h35m-35 5h35m-35 5h35m-35 5h35m-35 5h35m-35 5h35m-35 5h35m-13 5h13"/>
        <path stroke="#1DBB3E" d="M9 66.242l1.846 4.652c.187.475.484 1.028 1.078 1.099.704.084 1.184-.57 1.42-1.128A13.249 13.249 0 0 0 14.318 64a7.527 7.527 0 0 0 .182 5.26c.24-.476.477-.952.715-1.428.183.656.388 1.344.947 1.829.557.485 1.593.658 2.159.177.419-.357.434-.917.382-1.414a9.892 9.892 0 0 0-1.24-3.832c.236.767.48 1.548.976 2.224.497.676 1.292 1.245 2.235 1.35.412.046.875-.014 1.15-.274.276-.259.232-.746-.153-.879"/>
    </g>
</svg>
