<svg xmlns="http://www.w3.org/2000/svg" width="41" height="48" viewBox="0 0 41 48">
    <g fill="#56665A" fill-rule="evenodd">
        <path d="M25 6H11a1 1 0 0 0-1 1v6a1 1 0 0 0 1 1h14a1 1 0 0 0 1-1V7a1 1 0 0 0-1-1zm-1 6H12V8h12v4zm1 12a1 1 0 0 0-1 1v6a1 1 0 0 0 2 0v-6a1 1 0 0 0-1-1z"/>
        <path d="M38.31 11.266a2.996 2.996 0 0 0-3.922-2.448L32 9.612V5c0-2.758-2.244-5-5-5H9C6.244 0 4 2.242 4 5v41H1a1 1 0 0 0 0 2h34a1 1 0 0 0 0-2h-3v-6.054a9.755 9.755 0 0 0 8.67-10.99l-2.36-17.69zM6 46V5c0-1.654 1.346-3 3-3h18c1.654 0 3 1.346 3 3v41H6zm30.834-10.646c-1.25 1.426-2.978 2.296-4.834 2.54V11.722l3.022-1.006a.958.958 0 0 1 .842.1c.254.158.422.42.462.716l2.36 17.69a7.747 7.747 0 0 1-1.852 6.132z"/>
    </g>
</svg>
