<svg xmlns="http://www.w3.org/2000/svg" width="82" height="82" viewBox="0 0 82 82">
    <g fill="none" fill-rule="evenodd" stroke-linecap="round" stroke-linejoin="round" stroke-width="2">
        <path stroke="#56665A" d="M1 81s48.276-24.483 48.276-38.62c0-8.794-9.655-11.04-9.655-22.07C39.62 9.281 63.069 1 63.069 1m-9.655 80s17.93-24.483 17.93-38.62c0-16.552-9.654-15.922-9.654-22.07C61.69 14.163 81 6.517 81 6.517"/>
        <path stroke="#56665A" stroke-dasharray="2 8" d="M27.207 81S58.93 57.897 58.93 43.759c0-16.552-8.276-12.782-8.276-22.07C50.655 12.404 76.862 1 76.862 1"/>
        <path stroke="#1DBB3E" d="M15 51v14m8.069-22.62a8.277 8.277 0 0 1-8.276 8.275 8.277 8.277 0 0 1-8.276-8.276c0-4.57 3.706-22.069 8.276-22.069s8.276 17.5 8.276 22.07zm-12.014.185c.18 1.422.917 2.115 1.978 2.382m3.173-12.982c-.804-1.186-1.774-1.469-2.843-1.227"/>
    </g>
</svg>
