<svg xmlns="http://www.w3.org/2000/svg" width="48" height="44" viewBox="0 0 48 44">
    <g fill="#56665A" fill-rule="evenodd">
        <path d="M1 44h26a1 1 0 0 0 1-1V29c0-3.86-3.14-7-7-7h-3v-4.102c2.28-.464 4-2.484 4-4.898V6h.916a1 1 0 0 0 1-1V1a1 1 0 0 0-1-1h-18a1 1 0 0 0-1 1v4a1 1 0 0 0 1 1H6v7a5.006 5.006 0 0 0 4 4.898V22H7c-3.86 0-7 3.14-7 7v14a1 1 0 0 0 1 1zM5.916 2h16v2h-16V2zM18.78 6C17.358 7.298 15.712 8 14 8c-1.712 0-3.358-.702-4.78-2h9.56zM8 13V7.588C9.762 9.154 11.826 10 14 10s4.238-.846 6-2.412V13c0 1.654-1.346 3-3 3h-6c-1.654 0-3-1.346-3-3zm3 11a1 1 0 0 0 1-1v-5h4v5a1 1 0 0 0 1 1h2.402c-.966 2.404-3.05 4-5.402 4-2.352 0-4.436-1.596-5.402-4H11zm-9 5c0-2.59 1.988-4.702 4.516-4.95C7.63 27.584 10.588 30 14 30s6.37-2.416 7.484-5.95C24.012 24.298 26 26.41 26 29v13H2V29z"/>
        <path d="M13 14h2a1 1 0 0 0 0-2h-2a1 1 0 0 0 0 2zm29.754-8.8a.987.987 0 0 0-.924-.012.995.995 0 0 0-.54.75L40.132 14h-3.866l-1.178-8.242a1 1 0 0 0-1.422-.76C30.226 6.64 28 10.172 28 14a9.99 9.99 0 0 0 4 7.998V38c0 3.308 2.692 6 6 6s6-2.692 6-6V21.998A9.99 9.99 0 0 0 48 14a9.98 9.98 0 0 0-5.246-8.8zm-.31 15.45a.994.994 0 0 0-.444.83V38c0 2.206-1.794 4-4 4s-4-1.794-4-4V21.48a1 1 0 0 0-.444-.832A7.99 7.99 0 0 1 30 14a8.015 8.015 0 0 1 3.322-6.48l1.088 7.622a1 1 0 0 0 .99.858H41c.498 0 .918-.366.99-.858l1.056-7.356A7.99 7.99 0 0 1 46 14a7.996 7.996 0 0 1-3.556 6.65z"/>
        <circle cx="38" cy="38" r="2"/>
    </g>
</svg>
