<?xml version="1.0" standalone="no"?>
<!DOCTYPE svg PUBLIC "-//W3C//DTD SVG 20010904//EN"
 "http://www.w3.org/TR/2001/REC-SVG-20010904/DTD/svg10.dtd">
<svg version="1.0" xmlns="http://www.w3.org/2000/svg"
 width="244.000000pt" height="255.000000pt" viewBox="0 0 244.000000 255.000000"
 preserveAspectRatio="xMidYMid meet">
<metadata>
Created by potrace 1.11, written by Peter Selinger 2001-2013
</metadata>
<g transform="translate(0.000000,255.000000) scale(0.100000,-0.100000)"
fill="#000000" stroke="none">
<path d="M1130 2543 c-295 -32 -527 -138 -738 -337 -164 -155 -305 -403 -357
-626 -27 -118 -34 -197 -30 -330 3 -137 7 -180 20 -240 4 -14 8 -36 11 -50 3
-14 19 -65 36 -115 131 -393 474 -710 863 -801 111 -26 132 -28 280 -28 192 0
249 9 420 72 219 80 426 244 571 452 100 144 187 360 209 520 3 25 8 59 11 75
3 17 6 84 6 150 0 125 -18 251 -52 370 -11 38 -20 71 -20 72 0 13 -34 -8 -103
-64 -46 -38 -130 -106 -188 -153 -57 -47 -113 -92 -124 -102 -11 -9 -159 -130
-330 -268 -170 -139 -321 -261 -335 -273 -14 -12 -49 -41 -78 -65 l-53 -43 6
152 c3 84 8 156 10 159 2 3 0 11 -4 18 -5 8 -23 -1 -56 -29 -28 -23 -67 -55
-89 -73 -21 -17 -69 -56 -106 -86 -390 -319 -444 -361 -427 -334 3 5 8 79 12
164 4 85 8 176 10 203 1 26 0 47 -4 47 -3 0 -35 -16 -71 -36 -36 -19 -117 -63
-180 -96 -63 -34 -122 -66 -130 -71 -8 -6 151 157 355 361 203 205 371 372
373 372 2 0 1 -8 -2 -17 -3 -10 -7 -29 -10 -43 -11 -59 -48 -247 -53 -265 -17
-71 -20 -95 -9 -87 6 5 97 78 201 162 105 83 206 165 225 180 19 15 80 64 134
109 55 44 103 78 108 75 5 -3 6 -9 4 -12 -4 -7 -15 -134 -21 -249 l-3 -62 131
111 c155 130 187 157 327 273 58 48 116 96 130 108 23 20 116 98 163 137 63
52 61 48 44 73 -32 50 -137 174 -178 212 -195 180 -425 289 -679 321 -52 6
-194 11 -230 7z"/>
</g>
</svg>
