<svg xmlns="http://www.w3.org/2000/svg" width="1480" height="282" viewBox="0 0 1480 282">
  <path fill="#edf8f0" fill-rule="evenodd" d="M0 49.47c42.212-20.178 68.684-31.894 136.738-31.894 45.657 0 73.225 15.622 114.575 21.154 34.458 4.232 33.363 4.533 69.545 3.232 48.24-1.628 80.977-12.694 119.743-22.132 18.09-4.556 43.934-12.042 66.332-9.113 30.151 4.231 72.301 19.551 91.55 28.665 23.737 11.239 37.905 17.248 74.946 15.621 62.026-3.254 75.317-20.73 97.714-38.955 6.892-5.533 15.506-17.25 36.182-15.948 15.505.977 31.012 14.462 44.796 17.391 14.643 2.604 37.098 28.725 104.043 12.777 66.945-15.947 74.621-17.574 84.959-15.947 15.506 2.278 24.982 12.042 37.905 15.947 49.964 14.321 95.622-15.296 140.418-19.202 21.536-1.627 36.18 3.58 54.272 7.486 49.965 10.415 66.294 24.41 139.759 11.716 31.766 0 66.523 29.066 66.523 29.066V282H0V49.47z"/>
</svg>
