<svg xmlns="http://www.w3.org/2000/svg" xmlns:xlink="http://www.w3.org/1999/xlink" width="1480" height="696" viewBox="0 0 1480 696">
    <defs>
        <path id="a" d="M0 464c55.7-22.706 123.073-26.344 181-15 45.724 9.583 91.184 21.411 138 11 49.563-10.516 89.569-43.272 143-28 19.307 5.656 33.855 15.664 50 26 32.969 33.723 69.47 23.712 98.465 42.457C639.637 515.21 659.515 528.644 690 527c31.341-2.906 69.53-22.922 90-47 15.898-15.958 24.99-35.976 42-51 20.27-17.731 42.09-22.28 68-26 32.28-3.56 63.195-8.11 94-18 22.838-7.397 61.935-13.766 80-31 13.757-13.703 17.396-41 26-58 7.76-20.304 15.034-40.323 34-53 20.13-14.618 47.407-17.348 67-34 20.415-18.834 18.596-56.14 27-83 12.508-43.2 36.147-65.948 80-78 57.072-14.335 96.828 24.43 155.727-35.7C1460.197 6.2 1474.544 0 1480 0v696H0V464z"/>
        <path id="c" d="M292.04 139c2.76 0 5.234-2.22 5.525-4.972l1.508-14.29c.58-5.497-1.294-13.77-4.427-18.319 0 0-13.71-26.416-48.503-37.762-34.793-11.345-70.96-44.218-118.76-44.59-47.214-.143-115.847-.01-115.847-.01-3.312.005-4.716 2.381-3.146 5.288l6.04 11.183c1.053 1.948 1.47 5.257.931 7.405 0 0-13.598 53.469-13.998 65.605-.399 12.136-.382 20.454-.382 20.454A9.92 9.92 0 0 0 10.913 139H292.04z"/>
    </defs>
    <g fill="none" fill-rule="evenodd">
        <mask id="b" fill="#fff">
            <use xlink:href="#a"/>
        </mask>
        <use fill="#EDF9F0" xlink:href="#a"/>
        <g mask="url(#b)">
            <path fill="#AEEBBC" d="M706.283 637s-13.903 13.423-12.126 31.078c0 0 13.15-13.368 12.126-31.078"/>
            <path fill="#AEEBBC" d="M713.27 651s-5.915 13.859-19.27 17.472c0 0 6.084-13.296 19.27-17.472"/>
            <path fill="#72CC86" d="M695.123 629s9.01 20.501-.653 38.65c0 0-8.227-20.111.653-38.65"/>
            <path fill="#72CC86" d="M710.851 644s-2.952 16.947-16.851 24.453c0 0 3.287-16.367 16.851-24.453"/>
            <path fill="#72CC86" d="M719.183 652S702.12 654.189 694 667.738c0 0 16.498-2.551 25.183-15.738"/>
            <path fill="#AEEBBC" d="M684.152 640s11.861 12.458 9.62 28.095c0 0-11.196-12.383-9.62-28.095"/>
            <path fill="#72CC86" d="M678 648s13.534 6.622 16.452 20.146c0 0-12.963-6.763-16.452-20.146"/>
            <path fill="#AEEBBC" d="M672 654s15.259 1.958 22.522 14.075c0 0-14.755-2.281-22.522-14.075"/>
        </g>
        <path fill="#A2DFAF" d="M-2.126 716.902c51.258-15.7 90.106-34.62 139.732-45.784 24.425-5.228 48.685-9.51 74.701-10.844 201.47-10.322 227.641-41.308 279.526-30.12 54.77 11.351 84.422 24.285 103.617 26.506 65.355 5.544 113.215-2.721 173.499 16.868 12.138 3.644 100.75 43.32 112.051 43.374l-26.507 119.28-406.035 18.073-233.741-36.145L-13 748.229l10.874-31.327z" mask="url(#b)"/>
        <path fill="#72CC86" d="M1117.905 682.384c0 4.568-2.665 6.86-5.952 6.86-3.288 0-5.953-2.292-5.953-6.86 0-4.569 3.646-22.384 5.953-22.384 2.306 0 5.952 17.815 5.952 22.384z" mask="url(#b)"/>
        <path fill="#AEEBBC" d="M1104.905 686.384c0 4.568-2.665 6.86-5.952 6.86-3.288 0-5.953-2.292-5.953-6.86 0-4.569 3.646-22.384 5.953-22.384 2.306 0 5.952 17.815 5.952 22.384z" mask="url(#b)"/>
        <path fill="#A1DFAF" d="M838.803 748.073c37.845-14.146 66.785-30.852 103.825-41 18.126-4.326 36.199-8.108 55.71-9 149.958-9.4 169.455-36.76 208.495-27 40.414 10.143 62.504 21.563 76.814 24 48.677 4.419 84.331-2.879 129.148 14 9.135 3.636 75.148 38.67 83.567 39l-19.415 105-303.034 16-173.886-32-169.665-62 8.44-27z" mask="url(#b)" transform="matrix(-1 0 0 1 2326.723 0)"/>
        <g mask="url(#b)">
            <g transform="translate(212 540)">
                <path fill="#78C6C9" d="M38 0h80a4 4 0 0 1 4 4v15H34V4a4 4 0 0 1 4-4z"/>
                <path fill="#1C454F" d="M41 4h74a3 3 0 0 1 3 3v12H38V7a3 3 0 0 1 3-3z"/>
                <g fill-rule="nonzero">
                    <path fill="#1DBB3E" d="M54.777 11.255l-.286 1.344 2.226-1.719-.088 1.058 2.644-2.116a3.963 3.963 0 0 0-3.306-1.763A3.979 3.979 0 0 0 52 12.026c0 .573.11 1.102.33 1.587l2.447-2.358z"/>
                    <path fill="#1DBB3E" d="M59.67 10.594l-3.923 3.063.044-1.08-2.204 1.72.066-1.345-1.322.683a3.97 3.97 0 0 0 3.636 2.359 3.965 3.965 0 0 0 3.968-3.968 3.85 3.85 0 0 0-.265-1.432"/>
                    <path fill="#FFF" d="M68.31 10.491l-.274-.962-.301.962-1.419 4.468h-.928l-1.842-6.34h.81l1.35 4.82.165.697.192-.631 1.603-4.886h.788l1.563 4.838.201.675.157-.618 1.354-4.895h.784l-1.842 6.34h-.924zM74.9 14.485c.203 0 .393-.042.572-.124.179-.083.335-.205.47-.366.135-.161.243-.362.323-.601.08-.24.12-.516.124-.83 0-.235-.036-.45-.107-.644a1.5 1.5 0 0 0-.303-.505 1.341 1.341 0 0 0-.476-.331 1.616 1.616 0 0 0-.63-.118c-.177 0-.337.024-.479.072a1.307 1.307 0 0 0-.666.494 1.739 1.739 0 0 0-.2.364 2 2 0 0 0-.116.403c-.025.139-.037.277-.037.413 0 .134.01.271.028.412.02.14.05.276.094.407.044.13.103.254.179.37.075.116.169.217.28.303.112.086.246.154.401.204.155.051.336.077.542.077m-.082-4.103c.183 0 .35.017.5.05.151.034.29.081.419.142.127.061.245.137.352.227.108.09.208.191.3.304l.027-.614h.71l-.018 1.102v3.366h-.718l.008-.627c-.07.093-.157.184-.263.272a1.845 1.845 0 0 1-.36.233 2.174 2.174 0 0 1-.949.223c-.25 0-.476-.033-.68-.098a1.946 1.946 0 0 1-.96-.673 2.296 2.296 0 0 1-.289-.497 2.889 2.889 0 0 1-.226-1.115c0-.287.044-.569.132-.844.089-.276.223-.521.401-.736a1.99 1.99 0 0 1 .67-.519c.27-.13.584-.196.944-.196m4.311-1.114h-.666v-.675h.666v.675zm-.701 1.223h.718v4.468h-.718v-4.468zm1.524 0h.793l1.224 3.005c.02.05.044.116.074.198.029.083.056.167.082.25.032.097.064.198.096.306.03-.105.06-.205.092-.3l.078-.25c.026-.083.05-.152.074-.204l1.202-3.005h.77l-1.885 4.468h-.732l-1.868-4.468zm8.462 1.816l-.004-.06a1.859 1.859 0 0 0-.111-.519 1.238 1.238 0 0 0-.246-.405 1.074 1.074 0 0 0-.38-.263 1.303 1.303 0 0 0-.507-.094 1.299 1.299 0 0 0-.967.396 1.476 1.476 0 0 0-.285.427 1.939 1.939 0 0 0-.148.518h2.648zm.58 2.152a2.307 2.307 0 0 1-.802.457 3.205 3.205 0 0 1-.997.144c-.352 0-.665-.058-.941-.172a1.974 1.974 0 0 1-.7-.48 2.076 2.076 0 0 1-.435-.733c-.1-.285-.15-.597-.15-.937 0-.322.05-.625.148-.91.099-.284.243-.534.431-.749a2.04 2.04 0 0 1 .69-.51c.272-.124.582-.187.93-.187.343 0 .64.056.893.168.253.112.46.266.623.462.162.196.284.429.364.699a3.091 3.091 0 0 1 .11 1.106h-3.422l.013.196c.017.218.061.416.132.596.071.18.17.336.294.466.125.13.276.232.454.303.179.071.382.107.611.107.308 0 .589-.054.844-.161.255-.108.484-.262.687-.462l.222.597z"/>
                    <path fill="#1DBB3E" d="M94.758 9.647a2.516 2.516 0 0 0-1.555-.501c-.267 0-.51.035-.731.107a2.118 2.118 0 0 0-1.052.743 2.66 2.66 0 0 0-.322.557c-.086.201-.15.412-.192.635a3.587 3.587 0 0 0 .072 1.647c.09.31.228.581.414.815a2 2 0 0 0 .705.558c.285.138.621.207 1.01.207.358 0 .694-.052 1.009-.155.315-.103.591-.259.83-.468l.252.614c-.27.218-.59.381-.958.49a4.396 4.396 0 0 1-1.246.163c-.479 0-.901-.084-1.267-.252a2.662 2.662 0 0 1-.923-.69 2.985 2.985 0 0 1-.566-1.02 3.946 3.946 0 0 1-.192-1.243c0-.299.031-.589.094-.87.062-.282.153-.547.274-.795.12-.249.27-.476.446-.684a2.8 2.8 0 0 1 .608-.533c.228-.148.48-.264.755-.347a3.11 3.11 0 0 1 .898-.124c.394 0 .747.053 1.058.158.31.105.598.275.862.508l-.283.48zm3.528 4.838c.203 0 .394-.042.572-.124.179-.083.336-.205.47-.366.136-.161.243-.362.323-.601.08-.24.121-.516.124-.83 0-.235-.036-.45-.107-.644a1.5 1.5 0 0 0-.302-.505 1.341 1.341 0 0 0-.477-.331 1.616 1.616 0 0 0-.63-.118c-.177 0-.336.024-.479.072a1.306 1.306 0 0 0-.666.494 1.742 1.742 0 0 0-.2.364 2 2 0 0 0-.116.403c-.024.139-.037.277-.037.413 0 .134.01.271.029.412.018.14.05.276.093.407.044.13.103.254.179.37.075.116.169.217.28.303.112.086.246.154.401.204.156.051.336.077.543.077m-.083-4.103c.183 0 .35.017.5.05.152.034.29.081.419.142.127.061.245.137.352.227.108.09.208.191.301.304l.026-.614h.71l-.017 1.102v3.366h-.719l.009-.627a1.845 1.845 0 0 1-.623.505 2.175 2.175 0 0 1-.95.223c-.25 0-.476-.033-.679-.098a1.945 1.945 0 0 1-.96-.673 2.296 2.296 0 0 1-.29-.497 2.889 2.889 0 0 1-.226-1.115c0-.287.044-.569.133-.844.088-.276.222-.521.4-.736.179-.215.402-.388.671-.519.268-.13.583-.196.943-.196m4.329 4.577h-.719v-3.392c0-.183-.003-.366-.009-.549a221.56 221.56 0 0 0-.017-.527h.719l.026.675c.122-.246.287-.438.496-.575.21-.136.441-.204.697-.204.168 0 .325.017.47.052l.009.675a.882.882 0 0 0-.222-.076 1.316 1.316 0 0 0-.279-.028c-.174 0-.334.034-.479.102a1.024 1.024 0 0 0-.37.294 1.41 1.41 0 0 0-.237.466 2.072 2.072 0 0 0-.085.614v2.473z"/>
                </g>
                <mask id="d" fill="#fff">
                    <use xlink:href="#c"/>
                </mask>
                <use fill="#78C6C9" xlink:href="#c"/>
                <path fill="#FFF" d="M262.002 49s-15.785 45.694 41.298 54.674c55.917 9.584 18.355-35.929 18.355-35.929L262.002 49z" mask="url(#d)"/>
                <path fill="#FFF" fill-rule="nonzero" d="M182.2 110.945L166.167 126.4c-1.445-3.178-2.167-6.644-2.167-10.4 0-14.3 11.7-26 26-26a25.97 25.97 0 0 1 21.667 11.555l-17.334 13.867.578-6.933-14.589 11.267 1.878-8.811zm32.067-4.334c1.155 2.89 1.733 6.067 1.733 9.39C216 130.3 204.445 142 190 142c-10.689 0-19.789-6.356-23.834-15.456l8.667-4.478-.433 8.812 14.444-11.267-.288 7.078 25.71-20.078z" mask="url(#d)"/>
                <path fill="#EDF8F0" d="M36.26 70c-2.758 0-4.317-2.123-3.24-4.664 0 0 5.974-29.528 63.368-32.336h9.53c4.413 0 11.557.3 15.96.755 0 0 31.65 1.915 54.66 13.655 23.008 11.74 31.403 19.455 31.403 19.455 2.148 1.732 1.656 3.135-1.104 3.135H36.26z"/>
                <circle cx="55" cy="125" r="31" fill="#1C444F"/>
                <circle cx="55.5" cy="125.5" r="12.5" fill="#FFF"/>
                <circle cx="230" cy="125" r="31" fill="#1C454F"/>
                <circle cx="229.5" cy="125.5" r="12.5" fill="#FFF"/>
                <path fill="#FFF" d="M194 66.513c0-1.658 1.328-3.2 2.973-3.447l14.054-2.103c1.642-.246 2.973.896 2.973 2.547v8.98c0 1.652-1.328 2.793-2.973 2.547l-14.054-2.103c-1.642-.246-2.973-1.789-2.973-3.447v-2.974z"/>
                <rect width="15" height="4" x="123" y="81" fill="#FFF" rx="2"/>
                <rect width="15" height="4" x="49" y="81" fill="#FFF" rx="2"/>
            </g>
        </g>
        <g mask="url(#b)">
            <g transform="translate(568 604)">
                <path fill="#72CC86" d="M22.379 65.466S8.082 59.724.775 45.517c0 0-1.812-3.672.105-7.818 0 0 .372-1.233 4.425-4.094 0 0 2.046-.973.2-4.093l-2.042-3.19s-2.583-2.494.204-6.97c0 0 1.838-2.374 5.487-3.887 3.65-1.513 4.968-7.77 5.439-8.656.47-.885 6.73-14.458 17.97-.629 0 0 1.364 2.3 1.831 6.205.468 3.905 7.768 3.464 7.768 3.464.546-.008 1.401.138 1.901.37 0 0 9.132 2.56-.359 15.982 0 0-4.282 3.978.139 8.647 4.421 4.67 4.386 8.029 2.72 10.386-1.667 2.358-14.39 11.593-19.588 15.345-5.198 3.752-4.596-1.113-4.596-1.113z"/>
                <path fill="#C6A194" d="M22 66h5v26h-5z"/>
                <rect width="4" height="19" x="17" y="64" fill="#C6A194" rx="2" transform="rotate(-45 19 73.5)"/>
            </g>
        </g>
        <g mask="url(#b)">
            <path fill="#72CC86" d="M167 696c1.139-2.71 2-4.4 2-7 0-6.913-8.318-12.924-19-13 .339-.168.35-.333 0 0 .35-9.551-7.17-17-16-17-7.793 0-14.019 4.624-16 11-2.443-2.531-5.78-4.234-10-4-5.998-.234-11.234 4.732-11 11-.234.115-.211.354 0 1-1.452-.73-2.78-.914-4-1-7.804.086-14 5.869-14 13 0 1.8.685 3.29 2 6h86"/>
            <path fill="#FFF" d="M153 696c1.406-1.187 2-2.709 2-4 0-4.637-5.73-8.368-13-8 .144-.52.152-.615 0-1 .152-5.36-5.029-10-11-10-5.48 0-9.77 2.885-11 7-1.816-1.72-4.116-2.78-7-3-4.154.22-7.761 3.316-8 7 .239.294.254.445 0 1-.6-.607-1.516-.723-2-1-5.733.277-10 3.848-10 8 0 1.416.472 2.813 1 4h59" opacity=".202"/>
        </g>
        <g mask="url(#b)">
            <path fill="#C5A193" d="M1200 696h3v-25h-3z"/>
            <path fill="#72CC86" d="M1187 681l14-44 14 44h-28"/>
        </g>
    </g>
</svg>
